<svg width="382" height="397" viewBox="0 0 382 397" fill="none" xmlns="http://www.w3.org/2000/svg">
<ellipse cx="29.8847" cy="29.9115" rx="29.8847" ry="29.9115" transform="matrix(0.139173 0.990268 0.990268 -0.139173 64.9725 90.1575)" fill="#B46093"/>
<ellipse cx="14.9423" cy="14.9558" rx="14.9423" ry="14.9558" transform="matrix(0.139173 0.990268 0.990268 -0.139173 53.6403 69.5938)" fill="#B46093"/>
<path d="M116.196 68.5742L127.867 146.015" stroke="#B46093" stroke-width="37.125" stroke-linecap="round"/>
<path d="M52.248 122.714L126.486 147.655" stroke="#B46093" stroke-width="37.125" stroke-linecap="round"/>
<path d="M121.474 135.868C122.273 135.102 122.376 139.956 122.369 140.179C122.353 140.771 121.349 143.899 121.732 143.408C125.04 139.16 128.533 135.152 132.017 131.05C133.175 129.686 129.555 133.648 128.304 134.927C127.011 136.248 125.707 137.528 124.383 138.816C123.843 139.341 121.201 142.622 120.239 142.537C119.122 142.44 121.065 140.439 121.646 139.479C123.724 136.053 126 132.732 128.392 129.519C129.103 128.564 133.656 123.563 129.817 126.936C127.622 128.864 125.568 130.98 123.281 132.801C120.103 135.332 125.744 128.108 126 127.771C126.034 127.726 129.475 123.058 128.676 123.566C126.119 125.192 123.867 127.493 121.548 129.438C119.025 131.556 130.061 119.746 127.158 121.303C126.064 121.889 121.977 125.774 120.843 125.322C120.446 125.164 124.727 119.665 125.09 119.228C125.419 118.833 127.115 117.4 127.169 116.776C127.172 116.745 124.473 118.639 124.317 118.76C120.682 121.596 122.7 118.147 123.991 116.231C126.501 112.507 123.468 115.092 121.697 116.578C121.429 116.803 118.34 119.528 118.955 118.661C120.085 117.067 121.445 115.662 122.609 114.098C124.397 111.697 119.93 115.187 119.445 115.419C119.08 115.594 122.891 110.872 122.733 110.321C122.503 109.524 117.447 114.009 116.977 113.872C116.309 113.676 119.798 109.279 119.873 109.183C120.758 108.046 121.59 106.995 122.472 105.859C122.964 105.225 124.552 103.7 123.759 103.826C121.699 104.154 118.89 106.948 117.25 108.036C116.789 108.342 110.94 111.992 111.285 111.272C113.011 107.674 115.488 103.89 118.182 100.941C119.354 99.658 115.773 103.668 114.123 104.211C112.987 104.584 114.989 101.943 115.735 101.008C117.793 98.4266 120.04 96.0002 122.109 93.4274C124.213 90.8122 116.545 97.326 114.41 99.9155C113.892 100.543 115.686 98.9004 116.251 98.3158C117.964 96.5432 120.974 94.2648 121.971 91.9652C122.612 90.4858 119.448 93.9737 118.212 95.0101C116.466 96.4751 114.721 97.9402 112.975 99.4052C111.149 100.937 116.468 96.1554 118.088 94.4073C119.104 93.3103 120.791 91.4057 121.794 90.2629C122.016 90.0107 124.192 87.9712 124.168 87.3188C124.158 87.043 120.78 89.4567 120.721 89.5032C119.262 90.668 115.578 94.5558 116.187 92.7909C116.871 90.8073 119.807 88.5603 121.127 87.0676C122.381 85.6486 127.658 81.1897 127.444 78.9641C127.291 77.3756 124.536 80.3208 123.234 81.2444C120.751 83.0072 118.16 85.4413 115.333 86.6495C114.663 86.9362 118.326 81.6214 118.667 81.1852C118.775 81.0476 122.743 75.9549 122.343 75.8692C121.728 75.7371 116.004 80.3799 115.966 78.7441C115.936 77.4629 121.212 69.6729 120.567 69.2771C120.051 68.9597 117.302 70.7835 117.821 69.3772C118.224 68.2852 120.024 65.0796 117.925 66.8412" stroke="white" stroke-opacity="0.2" stroke-width="0.7425" stroke-linecap="round"/>
<path d="M130.778 145.205C123.993 150.302 128.816 145.872 123.62 150.232C122.269 151.365 122.388 151.412 123.545 150.077C124.385 149.108 128.127 145.329 127.982 144.014C127.981 144.009 123.338 146.841 123.057 147.031C122.629 147.32 117.664 150.903 119.589 148.444C121.252 146.319 122.97 144.197 124.741 142.162C126.105 140.594 125.748 140.913 124.286 141.944C123.071 142.802 121.933 144.186 120.535 144.738C120.236 144.856 122.025 142.808 122.326 142.528C122.527 142.341 123.774 140.952 123.811 141.962C123.894 144.196 122.944 146.625 122.676 148.847C122.499 150.317 122.224 152.521 123.834 153.372C125.792 154.409 129.207 150.442 130.456 149.394C130.46 149.391 134.033 146.358 132.324 147.827C130.739 149.189 129.257 150.664 127.775 152.134" stroke="white" stroke-opacity="0.2" stroke-width="0.7425" stroke-linecap="round"/>
<path d="M113.111 149.253C113.545 148.597 114.119 147.459 112.691 147.973C112.354 148.095 110.741 149.333 111.063 148.985C111.967 148.011 112.641 146.833 113.361 145.724C113.619 145.326 114.983 143.418 113.525 144.525C112.072 145.628 110.697 146.817 109.207 147.876C108.959 148.052 106.699 149.924 107.626 148.359C109.131 145.818 111.31 143.707 113.269 141.528C113.931 140.792 114.582 140.09 115.125 139.264C115.643 138.475 115.228 138.652 114.721 138.977C111.402 141.101 102.9 148.973 104.924 145.592C105.972 143.841 107.755 142.312 109.197 140.891C110.003 140.096 111.165 139.13 109.479 140.545C108.414 141.438 106.146 144.085 104.654 144.104C104.287 144.108 104.906 143.403 105.126 143.109C106.135 141.76 107.238 140.474 108.283 139.153C108.764 138.547 110.466 136.778 108.782 138.191C106.903 139.768 105.024 141.344 103.145 142.921C99.7707 145.752 103.496 141.087 104.358 140.053C105.437 138.757 102.691 140.853 102.689 140.854C100.868 142.206 99.0335 143.516 97.0866 144.685C95.6381 145.554 98.0767 142.794 98.0811 142.789C99.6056 141.006 101.381 139.551 103.144 138.023C104.287 137.033 102.09 138.452 101.99 138.529C100.68 139.542 99.2018 141.287 97.5517 141.736C96.5509 142.009 98.4929 139.855 99.203 139.099C99.8 138.463 103.34 135.88 103.155 134.858C103.1 134.556 102.586 135.098 102.334 135.274C100.927 136.257 99.5535 137.304 98.2022 138.36C96.4927 139.697 91.7302 144.054 93.0322 142.317C94.7679 140.003 97.1307 138.108 99.1178 136.014C99.2232 135.903 102.143 132.65 100.262 134.101C97.2917 136.394 94.4439 138.819 91.3997 141.02C90.9973 141.311 87.1046 144.762 88.3178 142.083C89.37 139.758 91.0938 137.769 92.5186 135.673C92.575 135.59 95.8341 130.987 94.2509 131.77C91.7604 133.002 89.4585 134.93 87.2984 136.652C87.2434 136.696 84.1879 139.525 84.6371 138.15C85.1811 136.485 86.5046 135.154 87.644 133.885C88.1771 133.292 90.4984 130.765 88.1677 132.466C85.7904 134.201 83.504 136.061 81.1179 137.783C79.7328 138.782 79.3801 138.896 80.7005 137.48C81.9753 136.113 83.3546 134.801 84.5113 133.33C85.9787 131.464 82.1465 133.844 81.9857 133.953C79.1527 135.865 76.5982 138.109 73.6032 139.789C71.8157 140.791 71.065 140.977 72.5385 139.104C74.7856 136.248 77.1083 133.444 79.6531 130.848C81.3449 129.122 81.1902 128.764 78.9666 129.9C75.8286 131.504 73.045 133.701 70.0012 135.464C69.106 135.982 66.7953 137.498 68.0685 135.398C69.2019 133.529 70.5016 131.741 71.9635 130.116C72.0504 130.02 75.0923 126.82 74.016 126.952C71.4689 127.263 68.5012 129.862 66.3992 131.139C65.1191 131.916 64.1221 132.525 62.8405 133.254C62.3027 133.56 61.0579 134.65 61.1589 134.039C61.3171 133.083 66.2356 127.955 63.0131 129.082C62.1057 129.399 59.7575 130.817 60.2831 130.012C61.6469 127.923 64.2307 126.153 65.9973 124.401C66.579 123.824 68.3302 122.21 67.5684 122.511C65.38 123.376 63.3412 124.663 61.224 125.685C61.0033 125.791 57.7334 127.605 58.7649 126.224C59.7171 124.949 61.3426 123.119 61.6476 121.519C61.7494 120.985 51.1897 124.823 51.0487 123.936C50.7765 122.224 53.9462 120.069 50.5597 121.408" stroke="white" stroke-opacity="0.2" stroke-width="0.7425" stroke-linecap="round"/>
<path d="M121.972 116.391C121.825 116.514 123.036 114.032 123.207 113.686C124.041 112.009 123.199 112.751 122.266 113.456C120.633 114.689 119.1 116.111 117.302 117.111C116.751 117.417 115.05 118.244 115.722 116.769C117.061 113.831 119.437 111.253 121.402 108.737C122.292 107.596 125.176 104.935 125.265 103.284C125.283 102.934 124.54 103.306 124.231 103.471C123.402 103.913 122.161 104.78 121.427 105.279C120.759 105.733 115.554 109.825 114.674 108.444C113.945 107.3 117.625 103.685 118.11 103.111C119.91 100.982 121.776 98.9118 123.619 96.8213C124.934 95.3298 123.785 96.2363 123.007 96.8417C120.963 98.4317 118.939 100.059 116.748 101.447C116.704 101.475 113.625 103.55 114.407 101.88C115.391 99.7794 116.926 97.8265 118.161 95.8719C119.212 94.2091 120.912 92.1744 121.133 90.1282C121.355 88.0774 119.061 88.8266 117.884 88.891" stroke="white" stroke-opacity="0.2" stroke-width="0.7425" stroke-linecap="round"/>
<path d="M114.888 73.6429C114.045 73.8907 115.74 72.0978 116.269 71.3954C117.173 70.1951 118.415 68.9448 119.153 67.6144C120.02 66.0522 116.214 69.6491 114.792 70.7296C114.587 70.8854 111.574 73.3117 112.49 72.0824C113.662 70.5106 115.451 69.0415 116.175 67.1873C116.619 66.0478 113.823 67.4096 113.519 67.51C111.26 68.2566 112.88 65.7087 113.406 64.7804C114.064 63.6215 114.79 62.5016 115.499 61.3742C115.681 61.0849 116.635 59.9073 116.502 59.4268C116.37 58.947 112.284 62.3539 112.027 62.5691" stroke="white" stroke-opacity="0.2" stroke-width="0.7425" stroke-linecap="round"/>
<ellipse cx="291.989" cy="116.55" rx="29.8847" ry="29.9115" transform="rotate(98 291.989 116.55)" fill="#292A61"/>
<ellipse cx="320.211" cy="83.2709" rx="14.9423" ry="14.9558" transform="rotate(98 320.211 83.2709)" fill="#292A61"/>
<path d="M275.367 69.8249L263.696 147.266" stroke="#292A61" stroke-width="37.125" stroke-linecap="round"/>
<path d="M338.493 123.676L264.255 148.617" stroke="#292A61" stroke-width="37.125" stroke-linecap="round"/>
<path d="M269.267 136.83C268.468 136.064 268.366 140.917 268.372 141.14C268.388 141.733 269.392 144.861 269.009 144.369C265.702 140.121 262.208 136.113 258.725 132.011C257.566 130.647 261.186 134.61 262.437 135.889C263.73 137.209 265.034 138.49 266.359 139.777C266.898 140.302 269.54 143.583 270.502 143.499C271.62 143.401 269.677 141.4 269.095 140.441C267.018 137.015 264.742 133.693 262.349 130.481C261.638 129.526 257.085 124.524 260.924 127.897C263.119 129.826 265.173 131.942 267.46 133.762C270.638 136.293 264.997 129.069 264.741 128.732C264.707 128.687 261.266 124.019 262.065 124.528C264.622 126.154 266.874 128.454 269.193 130.4C271.716 132.517 260.68 120.707 263.583 122.264C264.677 122.851 268.764 126.735 269.898 126.284C270.295 126.126 266.014 120.626 265.651 120.189C265.323 119.794 263.627 118.361 263.572 117.737C263.569 117.707 266.268 119.6 266.424 119.722C270.059 122.558 268.041 119.109 266.75 117.193C264.24 113.468 267.273 116.053 269.044 117.539C269.313 117.764 272.401 120.49 271.786 119.623C270.656 118.028 269.296 116.623 268.132 115.059C266.344 112.658 270.811 116.149 271.296 116.381C271.661 116.556 267.85 111.833 268.009 111.282C268.238 110.485 273.294 114.971 273.765 114.833C274.432 114.638 270.943 110.24 270.868 110.144C269.983 109.007 269.151 107.956 268.269 106.82C267.778 106.187 266.19 104.661 266.982 104.787C269.042 105.115 271.852 107.91 273.491 108.997C273.953 109.304 279.801 112.953 279.456 112.234C277.73 108.636 275.253 104.852 272.559 101.902C271.388 100.619 274.968 104.63 276.619 105.172C277.754 105.546 275.752 102.904 275.007 101.969C272.948 99.388 270.701 96.9616 268.632 94.3888C266.528 91.7736 274.196 98.2874 276.332 100.877C276.849 101.504 275.055 99.8618 274.49 99.2772C272.777 97.5047 269.767 95.2262 268.77 92.9266C268.129 91.4473 271.294 94.9351 272.529 95.9715C274.275 97.4365 276.021 98.9016 277.767 100.367C279.592 101.899 274.274 97.1168 272.654 95.3687C271.637 94.2717 269.951 92.3671 268.947 91.2243C268.725 90.9721 266.549 88.9326 266.573 88.2803C266.584 88.0044 269.962 90.4182 270.02 90.4646C271.479 91.6294 275.163 95.5172 274.554 93.7523C273.87 91.7687 270.934 89.5217 269.614 88.029C268.36 86.61 263.083 82.1511 263.297 79.9255C263.45 78.337 266.205 81.2822 267.507 82.2058C269.99 83.9686 272.581 86.4027 275.408 87.6109C276.078 87.8976 272.415 82.5828 272.074 82.1466C271.966 82.009 267.999 76.9164 268.398 76.8306C269.013 76.6985 274.737 81.3413 274.775 79.7055C274.805 78.4243 269.53 70.6343 270.174 70.2386C270.69 69.9212 273.439 71.7449 272.92 70.3386C272.517 69.2466 270.717 66.041 272.816 67.8026" stroke="white" stroke-opacity="0.2" stroke-width="0.7425" stroke-linecap="round"/>
<path d="M259.963 146.167C266.748 151.264 261.925 146.834 267.121 151.193C268.472 152.327 268.353 152.373 267.196 151.039C266.356 150.07 262.614 146.29 262.759 144.975C262.76 144.971 267.403 147.803 267.684 147.992C268.112 148.281 273.078 151.865 271.152 149.405C269.489 147.281 267.772 145.159 266.001 143.123C264.637 141.556 264.993 141.875 266.455 142.906C267.671 143.763 268.808 145.147 270.206 145.7C270.505 145.818 268.716 143.77 268.415 143.489C268.214 143.302 266.968 141.913 266.93 142.924C266.847 145.158 267.797 147.586 268.065 149.809C268.242 151.279 268.517 153.482 266.907 154.334C264.949 155.371 261.534 151.404 260.285 150.356C260.281 150.352 256.708 147.319 258.417 148.788C260.002 150.15 261.484 151.625 262.967 153.096" stroke="white" stroke-opacity="0.2" stroke-width="0.7425" stroke-linecap="round"/>
<path d="M277.63 150.215C277.196 149.558 276.622 148.42 278.05 148.935C278.387 149.056 280.001 150.294 279.678 149.947C278.774 148.973 278.1 147.794 277.38 146.685C277.122 146.288 275.759 144.38 277.216 145.486C278.669 146.59 280.044 147.779 281.534 148.837C281.782 149.013 284.042 150.885 283.115 149.32C281.61 146.78 279.431 144.669 277.472 142.49C276.81 141.754 276.159 141.052 275.616 140.225C275.098 139.436 275.514 139.614 276.02 139.938C279.339 142.063 287.842 149.935 285.818 146.554C284.769 144.802 282.986 143.274 281.544 141.852C280.739 141.058 279.576 140.092 281.262 141.507C282.327 142.4 284.595 145.047 286.087 145.065C286.454 145.07 285.835 144.365 285.615 144.071C284.606 142.722 283.503 141.436 282.458 140.115C281.977 139.508 280.276 137.74 281.959 139.153C283.838 140.729 285.717 142.306 287.596 143.883C290.97 146.714 287.245 142.049 286.383 141.015C285.304 139.719 288.05 141.814 288.052 141.816C289.874 143.168 291.708 144.477 293.654 145.646C295.103 146.516 292.664 143.756 292.66 143.75C291.135 141.968 289.36 140.513 287.597 138.985C286.454 137.995 288.651 139.414 288.751 139.491C290.061 140.503 291.539 142.249 293.189 142.698C294.19 142.97 292.248 140.817 291.538 140.061C290.941 139.425 287.401 136.841 287.586 135.819C287.641 135.517 288.155 136.06 288.407 136.236C289.814 137.218 291.188 138.265 292.539 139.322C294.248 140.659 299.011 145.015 297.709 143.279C295.973 140.965 293.61 139.069 291.623 136.975C291.518 136.864 288.598 133.611 290.479 135.063C293.449 137.355 296.297 139.78 299.341 141.982C299.744 142.273 303.637 145.724 302.423 143.044C301.371 140.72 299.647 138.731 298.223 136.635C298.166 136.552 294.907 131.949 296.49 132.732C298.981 133.963 301.283 135.892 303.443 137.613C303.498 137.657 306.553 140.487 306.104 139.112C305.56 137.446 304.236 136.116 303.097 134.847C302.564 134.253 300.243 131.727 302.573 133.428C304.951 135.163 307.237 137.023 309.623 138.745C311.008 139.744 311.361 139.858 310.041 138.442C308.766 137.075 307.387 135.763 306.23 134.292C304.762 132.426 308.595 134.806 308.755 134.914C311.588 136.827 314.143 139.071 317.138 140.751C318.925 141.753 319.676 141.938 318.203 140.066C315.955 137.21 313.633 134.406 311.088 131.81C309.396 130.084 309.551 129.726 311.775 130.862C314.912 132.465 317.696 134.663 320.74 136.426C321.635 136.944 323.946 138.46 322.673 136.36C321.539 134.491 320.239 132.703 318.778 131.078C318.691 130.981 315.649 127.782 316.725 127.913C319.272 128.225 322.24 130.824 324.342 132.1C325.622 132.878 326.619 133.487 327.901 134.216C328.438 134.522 329.683 135.611 329.582 135.001C329.424 134.045 324.505 128.917 327.728 130.043C328.635 130.361 330.984 131.778 330.458 130.973C329.094 128.885 326.51 127.114 324.744 125.362C324.162 124.785 322.411 123.171 323.173 123.473C325.361 124.337 327.4 125.624 329.517 126.646C329.738 126.753 333.008 128.567 331.976 127.186C331.024 125.911 329.398 124.081 329.093 122.481C328.992 121.947 339.551 125.784 339.692 124.898C339.965 123.186 336.795 121.031 340.181 122.369" stroke="white" stroke-opacity="0.2" stroke-width="0.7425" stroke-linecap="round"/>
<path d="M268.769 117.353C268.916 117.476 267.705 114.994 267.534 114.648C266.7 112.971 267.542 113.713 268.476 114.418C270.109 115.651 271.641 117.073 273.439 118.073C273.99 118.379 275.691 119.206 275.019 117.731C273.681 114.793 271.304 112.215 269.339 109.699C268.449 108.558 265.565 105.897 265.476 104.245C265.458 103.896 266.201 104.267 266.51 104.433C267.339 104.875 268.58 105.742 269.314 106.241C269.983 106.695 275.187 110.787 276.067 109.406C276.796 108.262 273.116 104.647 272.631 104.073C270.831 101.944 268.965 99.8737 267.122 97.7832C265.807 96.2917 266.956 97.1982 267.734 97.8036C269.778 99.3936 271.802 101.021 273.993 102.409C274.037 102.436 277.116 104.512 276.334 102.842C275.35 100.741 273.815 98.7884 272.58 96.8338C271.529 95.171 269.829 93.1363 269.608 91.0901C269.386 89.0393 271.68 89.7886 272.858 89.853" stroke="white" stroke-opacity="0.2" stroke-width="0.7425" stroke-linecap="round"/>
<path d="M275.853 74.6045C276.696 74.8523 275.001 73.0595 274.472 72.3571C273.568 71.1568 272.326 69.9065 271.588 68.5761C270.721 67.0139 274.527 70.6108 275.949 71.6913C276.154 71.8471 279.167 74.2733 278.251 73.0441C277.079 71.4722 275.29 70.0032 274.566 68.149C274.121 67.0095 276.918 68.3712 277.222 68.4717C279.481 69.2183 277.861 66.6704 277.335 65.7421C276.677 64.5831 275.951 63.4633 275.242 62.3359C275.06 62.0465 274.106 60.869 274.239 60.3884C274.371 59.9086 278.457 63.3156 278.714 63.5308" stroke="white" stroke-opacity="0.2" stroke-width="0.7425" stroke-linecap="round"/>
<ellipse cx="29.8847" cy="29.9115" rx="29.8847" ry="29.9115" transform="matrix(-0.529919 0.848048 0.848048 0.529919 185.081 23.3811)" fill="#F45956"/>
<ellipse cx="14.9423" cy="14.9558" rx="14.9423" ry="14.9558" transform="matrix(-0.529919 0.848048 0.848048 0.529919 189.618 0.344238)" fill="#F45956"/>
<path d="M238.25 38.5742L197.412 105.399" stroke="#F45956" stroke-width="37.125" stroke-linecap="round"/>
<path d="M154.406 40.1418L195.243 106.967" stroke="#F45956" stroke-width="37.125" stroke-linecap="round"/>
<path d="M198.981 94.7162C200.085 94.6425 197.044 98.4268 196.896 98.5936C196.503 99.0368 193.723 100.788 194.332 100.657C199.597 99.5292 204.849 98.7045 210.154 97.8014C211.918 97.5012 206.599 98.2098 204.818 98.3851C202.979 98.5661 201.157 98.7089 199.314 98.8438C198.563 98.8987 194.431 99.7139 193.748 99.0314C192.955 98.2379 195.729 97.9541 196.792 97.593C200.585 96.3037 204.464 95.2225 208.362 94.2993C209.52 94.0249 216.223 93.12 211.113 93.2361C208.192 93.3025 205.259 93.6029 202.337 93.5279C198.275 93.4238 207.24 91.5161 207.653 91.4225C207.708 91.4099 213.344 90.0459 212.406 89.9215C209.402 89.5234 206.197 89.8381 203.171 89.8381C199.877 89.8381 215.922 87.8848 212.698 87.2115C211.482 86.9577 205.855 87.3063 205.276 86.2317C205.074 85.8554 211.888 84.3944 212.447 84.293C212.953 84.2014 215.173 84.194 215.616 83.751C215.638 83.7294 212.353 83.4454 212.156 83.4383C207.548 83.2738 211.311 81.929 213.531 81.2911C217.848 80.0512 213.863 80.0821 211.551 80.0821C211.201 80.0821 207.083 80.1843 208.111 79.9153C210.002 79.4207 211.947 79.2181 213.844 78.7687C216.757 78.0788 211.092 77.8811 210.571 77.7473C210.179 77.6463 216.134 76.4784 216.367 75.9545C216.703 75.1965 209.947 75.3827 209.675 74.9747C209.289 74.3959 214.788 73.27 214.907 73.2445C216.317 72.943 217.629 72.6725 219.035 72.3689C219.819 72.1995 222.016 72.052 221.328 71.6393C219.539 70.5658 215.591 70.9006 213.636 70.6804C213.085 70.6183 206.259 69.6546 206.986 69.3253C210.62 67.6783 214.951 66.3719 218.91 65.844C220.632 65.6144 215.311 66.3851 213.698 65.7398C212.588 65.2959 215.82 64.5592 216.992 64.3222C220.228 63.6678 223.509 63.2535 226.748 62.6128C230.04 61.9616 219.979 62.0225 216.679 62.6337C215.88 62.7817 218.31 62.6766 219.118 62.592C221.57 62.3354 225.34 62.5246 227.582 61.4037C229.024 60.6827 224.358 61.3204 222.746 61.3204C220.466 61.3204 218.187 61.3204 215.908 61.3204C213.525 61.3204 220.673 61.0762 223.037 60.7783C224.521 60.5915 227.037 60.2164 228.541 59.9862C228.873 59.9354 231.851 59.7719 232.251 59.2566C232.421 59.0387 228.282 58.7164 228.207 58.7146C226.341 58.669 221.02 59.279 222.62 58.3185C224.42 57.2389 228.113 57.4046 230.083 57.1094C231.957 56.8288 238.865 56.8047 240.131 54.9622C241.035 53.6472 237.032 54.1323 235.441 54.0033C232.405 53.7572 228.856 53.9568 225.914 53.0652C225.216 52.8537 231.439 51.1371 231.98 51.0223C232.151 50.9861 238.464 49.6351 238.213 49.3129C237.827 48.8164 230.458 48.6935 231.48 47.4158C232.281 46.4151 241.329 43.8387 241.09 43.1215C240.899 42.5463 237.621 42.1767 238.922 41.433C239.933 40.8554 243.372 39.5568 240.632 39.5568" stroke="white" stroke-opacity="0.2" stroke-width="0.7425" stroke-linecap="round"/>
<path d="M200.106 107.849C191.633 107.393 198.175 107.099 191.393 107.099C189.629 107.099 189.69 107.211 191.434 106.932C192.701 106.73 197.997 106.24 198.73 105.139C198.733 105.136 193.356 104.32 193.019 104.285C192.505 104.231 186.398 103.785 189.454 103.138C192.093 102.58 194.773 102.058 197.438 101.637C199.49 101.313 199.012 101.329 197.23 101.179C195.747 101.054 193.986 101.383 192.56 100.908C192.256 100.806 194.942 100.387 195.353 100.366C195.627 100.352 197.475 100.089 196.854 100.887C195.482 102.651 193.193 103.901 191.559 105.431C190.479 106.444 188.852 107.955 189.537 109.642C190.371 111.695 195.537 110.851 197.167 110.851C197.173 110.851 201.859 110.825 199.606 110.851C197.516 110.876 195.433 111.053 193.352 111.227" stroke="white" stroke-opacity="0.2" stroke-width="0.7425" stroke-linecap="round"/>
<path d="M183.971 99.5945C184.725 99.3704 185.897 98.8677 184.472 98.3437C184.135 98.2201 182.104 98.1316 182.575 98.0727C183.893 97.9079 185.167 97.438 186.431 97.0512C186.884 96.9126 189.155 96.3274 187.328 96.2382C185.505 96.1493 183.688 96.1767 181.866 96.0298C181.563 96.0053 178.628 95.9864 180.344 95.3835C183.13 94.4046 186.156 94.1884 189.058 93.7784C190.038 93.6398 190.988 93.5204 191.935 93.2364C192.839 92.9651 192.406 92.8341 191.809 92.7569C187.902 92.2512 176.328 92.8159 180.052 91.527C181.981 90.8593 184.329 90.8345 186.348 90.6723C187.475 90.5816 188.987 90.5889 186.786 90.5889C185.396 90.5889 181.958 91.1586 180.803 90.2136C180.519 89.9813 181.446 89.8389 181.803 89.755C183.443 89.37 185.115 89.0941 186.765 88.7544C187.523 88.5983 189.963 88.3375 187.765 88.3375C185.312 88.3375 182.859 88.3375 180.407 88.3375C176.002 88.3375 181.855 87.1588 183.179 86.9199C184.839 86.6206 181.389 86.4614 181.386 86.4613C179.121 86.3261 176.875 86.1502 174.632 85.7942C172.963 85.5293 176.606 84.9823 176.613 84.9812C178.926 84.5956 181.221 84.6222 183.554 84.5851C185.066 84.5611 182.471 84.2358 182.345 84.2307C180.691 84.1646 178.436 84.5513 176.884 83.8347C175.942 83.4 178.814 82.9985 179.844 82.8757C180.71 82.7725 185.082 83.0687 185.597 82.1669C185.749 81.9006 185.006 81.9856 184.701 81.9585C182.991 81.8065 181.266 81.7258 179.552 81.6666C177.383 81.5918 170.934 81.8679 173.048 81.3748C175.865 80.7174 178.893 80.7843 181.762 80.4575C181.914 80.4402 186.241 79.8248 183.867 79.7279C180.118 79.5749 176.378 79.6019 172.631 79.3318C172.136 79.2962 166.936 79.4373 169.587 78.1645C171.887 77.0604 174.487 76.6445 176.925 75.9547C177.022 75.9274 182.477 74.4966 180.761 74.0786C178.062 73.421 175.058 73.4189 172.297 73.3489C172.227 73.3472 168.068 73.5506 169.295 72.7861C170.783 71.8601 172.652 71.6914 174.34 71.4519C175.13 71.3399 178.532 70.8966 175.654 70.7015C172.717 70.5024 169.77 70.4576 166.836 70.2428C165.132 70.1182 164.789 69.9785 166.711 69.7425C168.566 69.5147 170.466 69.3963 172.297 69.0129C174.621 68.5266 170.155 67.8866 169.963 67.8664C166.563 67.5106 163.164 67.5875 159.79 66.9491C157.776 66.5682 157.082 66.2274 159.414 65.74C162.971 64.9968 166.553 64.3419 170.171 63.9889C172.577 63.7543 172.688 63.3806 170.254 62.8216C166.82 62.0326 163.275 61.9269 159.81 61.3206C158.791 61.1423 156.047 60.8182 158.372 60.0281C160.442 59.3249 162.587 58.7906 164.751 58.4855C164.88 58.4674 169.267 57.9716 168.357 57.3807C166.206 55.9822 162.262 56.0653 159.831 55.6921C158.351 55.4648 157.196 55.2906 155.745 55.025C155.137 54.9136 153.483 54.9481 153.953 54.5456C154.688 53.9151 161.752 53.1479 158.56 51.9398C157.66 51.5995 154.95 51.1763 155.87 50.8974C158.258 50.174 161.375 50.4787 163.855 50.2721C164.671 50.204 167.05 50.0933 166.273 49.8343C164.04 49.0902 161.651 48.7654 159.373 48.1874C159.135 48.1272 155.464 47.4148 157.142 47.02C158.691 46.6556 161.113 46.2984 162.374 45.2689C162.796 44.9252 152.24 41.0773 152.702 40.3075C153.594 38.8212 157.407 39.2076 153.953 38.0561" stroke="white" stroke-opacity="0.2" stroke-width="0.7425" stroke-linecap="round"/>
<path d="M211.882 80.1157C211.691 80.1157 214.213 78.9928 214.567 78.8385C216.284 78.0892 215.161 78.1164 213.993 78.0565C211.95 77.9517 209.862 78.0557 207.842 77.6655C207.223 77.546 205.389 77.0863 206.851 76.3883C209.765 74.9982 213.242 74.551 216.365 73.886C217.78 73.5847 221.701 73.3996 222.83 72.1917C223.069 71.9359 222.26 71.7426 221.917 71.6704C220.998 71.4768 219.49 71.3429 218.607 71.2534C217.803 71.1719 211.186 70.9606 211.4 69.3376C211.577 67.9923 216.719 67.5888 217.46 67.4608C220.207 66.9867 222.967 66.6002 225.723 66.1836C227.689 65.8864 226.226 65.8421 225.241 65.8056C222.653 65.7098 220.057 65.6557 217.486 65.3104C217.435 65.3035 213.742 64.9139 215.414 64.1374C217.518 63.1605 219.949 62.6512 222.152 61.9479C224.026 61.3496 226.636 60.884 228.121 59.4587C229.609 58.0301 227.37 57.1297 226.427 56.422" stroke="white" stroke-opacity="0.2" stroke-width="0.7425" stroke-linecap="round"/>
<path d="M233.934 42.8154C233.128 42.463 235.579 42.1794 236.436 41.9813C237.9 41.6428 239.655 41.4833 241.076 40.9387C242.744 40.2992 237.517 40.6085 235.732 40.5216C235.475 40.5091 231.607 40.4312 233.1 40.0785C235.007 39.6276 237.322 39.6521 239.069 38.697C240.142 38.1101 237.124 37.3558 236.827 37.2374C234.616 36.3571 237.495 35.4464 238.495 35.0739C239.744 34.6089 241.02 34.2174 242.288 33.8097C242.613 33.7051 244.101 33.416 244.308 32.9626C244.515 32.5099 239.195 32.4934 238.86 32.4934" stroke="white" stroke-opacity="0.2" stroke-width="0.7425" stroke-linecap="round"/>
<ellipse cx="29.8847" cy="29.9115" rx="29.8847" ry="29.9115" transform="matrix(0.944697 0.327943 0.327943 -0.944697 36.3771 246.215)" fill="#DA9446"/>
<ellipse cx="14.9423" cy="14.9558" rx="14.9423" ry="14.9558" transform="matrix(0.944697 0.327943 0.327943 -0.944697 12.9081 246.917)" fill="#DA9446"/>
<path d="M38.6621 192.193L112.898 217.138" stroke="#DA9446" stroke-width="37.125" stroke-linecap="round"/>
<path d="M59.5433 272.391L115.607 217.708" stroke="#DA9446" stroke-width="37.125" stroke-linecap="round"/>
<path d="M102.831 216.791C102.514 215.73 106.88 217.853 107.075 217.96C107.595 218.245 109.921 220.565 109.658 220.001C107.387 215.119 105.414 210.182 103.353 205.211C102.668 203.558 104.543 208.586 105.11 210.284C105.695 212.036 106.24 213.781 106.781 215.547C107.002 216.267 108.716 220.115 108.203 220.932C107.606 221.882 106.712 219.24 106.123 218.285C104.022 214.873 102.105 211.333 100.338 207.738C99.8124 206.669 97.4388 200.336 98.6889 205.292C99.4035 208.124 100.349 210.918 100.926 213.783C101.728 217.766 97.8738 209.45 97.6907 209.069C97.6661 209.018 95.0823 203.826 95.1698 204.769C95.4501 207.786 96.4699 210.84 97.1433 213.791C97.8763 217.002 92.4017 201.794 92.4628 205.087C92.4858 206.329 94.0777 211.738 93.1588 212.541C92.8371 212.822 89.8965 206.504 89.6731 205.981C89.4714 205.508 88.9701 203.345 88.4397 203.012C88.4139 202.996 88.8678 206.261 88.9048 206.455C89.7696 210.984 87.6213 207.615 86.5053 205.592C84.336 201.659 85.2527 205.537 85.7672 207.792C85.8451 208.133 86.861 212.125 86.3699 211.182C85.467 209.448 84.8368 207.598 83.9766 205.848C82.6558 203.162 83.7236 208.729 83.7089 209.266C83.6979 209.671 81.2343 204.126 80.6716 204.015C79.8577 203.855 81.5426 210.401 81.2053 210.757C80.7269 211.262 78.4057 206.152 78.3542 206.041C77.7467 204.734 77.191 203.514 76.5822 202.212C76.2426 201.485 75.61 199.376 75.3607 200.138C74.7122 202.121 75.9171 205.896 76.1373 207.851C76.1994 208.402 76.7786 215.271 76.2959 214.636C73.8815 211.459 71.6443 207.528 70.2487 203.785C69.6416 202.157 71.5769 207.173 71.3067 208.889C71.1208 210.07 69.6835 207.083 69.1918 205.994C67.8337 202.984 66.6998 199.878 65.3545 196.862C63.987 193.797 66.2851 203.593 67.6152 206.674C67.9374 207.421 67.2943 205.075 67.0318 204.306C66.2362 201.972 65.5818 198.255 63.9902 196.319C62.9663 195.073 64.6263 199.48 64.985 201.052C65.4921 203.274 65.9993 205.496 66.5064 207.718C67.0367 210.042 65.2082 203.127 64.3917 200.888C63.8793 199.483 62.9538 197.114 62.3948 195.699C62.2715 195.387 61.4495 192.52 60.8579 192.244C60.6077 192.127 61.2145 196.234 61.2293 196.307C61.6002 198.137 63.3789 203.189 62.0862 201.842C60.6333 200.328 59.9732 196.691 59.2469 194.835C58.5565 193.071 56.996 186.342 54.9179 185.517C53.4347 184.928 54.7984 188.724 55.0266 190.303C55.4621 193.317 56.4464 196.733 56.2318 199.8C56.1809 200.527 53.1228 194.843 52.8903 194.34C52.817 194.182 50.0953 188.328 49.8369 188.644C49.4388 189.131 50.9587 196.343 49.4856 195.63C48.3318 195.072 43.8067 186.824 43.1606 187.217C42.6425 187.531 43.0114 190.809 41.9968 189.706C41.2089 188.849 39.1775 185.785 39.7873 188.457" stroke="white" stroke-opacity="0.2" stroke-width="0.7425" stroke-linecap="round"/>
<path d="M115.385 212.771C116.825 221.134 115.083 214.821 116.592 221.434C116.984 223.153 117.08 223.069 116.42 221.43C115.941 220.24 114.285 215.186 113.049 214.716C113.044 214.714 113.446 220.138 113.486 220.475C113.548 220.987 114.472 227.041 113.162 224.205C112.03 221.756 110.925 219.26 109.922 216.755C109.149 214.826 109.271 215.289 109.521 217.06C109.729 218.533 110.442 220.177 110.296 221.673C110.265 221.992 109.258 219.467 109.146 219.07C109.071 218.806 108.404 217.063 109.32 217.491C111.346 218.436 113.074 220.39 114.929 221.642C116.156 222.47 117.992 223.72 119.484 222.677C121.3 221.407 119.328 216.558 118.965 214.969C118.964 214.963 117.895 210.4 118.423 212.591C118.912 214.623 119.548 216.615 120.18 218.605" stroke="white" stroke-opacity="0.2" stroke-width="0.7425" stroke-linecap="round"/>
<path d="M110.927 230.338C110.541 229.653 109.79 228.623 109.596 230.129C109.55 230.484 109.916 232.484 109.754 232.038C109.3 230.79 108.558 229.653 107.9 228.506C107.664 228.095 106.588 226.011 106.908 227.813C107.227 229.61 107.658 231.375 107.92 233.184C107.963 233.485 108.598 236.35 107.628 234.811C106.054 232.313 105.17 229.411 104.125 226.673C103.772 225.748 103.444 224.849 102.956 223.989C102.49 223.168 102.459 223.619 102.517 224.218C102.893 228.14 106.019 239.298 103.933 235.954C102.853 234.222 102.307 231.938 101.699 230.006C101.36 228.927 101.031 227.452 101.521 229.598C101.83 230.953 103.15 234.178 102.486 235.515C102.323 235.843 101.978 234.971 101.816 234.641C101.076 233.128 100.435 231.56 99.7369 230.027C99.4159 229.322 98.6188 227.001 99.1077 229.144C99.6535 231.535 100.199 233.927 100.745 236.318C101.725 240.612 99.2738 235.169 98.7462 233.931C98.0851 232.379 98.6976 235.778 98.6979 235.78C99.07 238.019 99.3984 240.248 99.5504 242.514C99.6634 244.2 98.3197 240.77 98.3171 240.764C97.4264 238.594 96.9416 236.351 96.3864 234.084C96.0266 232.616 96.2869 235.218 96.3099 235.342C96.6135 236.97 97.4922 239.082 97.139 240.755C96.9248 241.77 95.8943 239.059 95.5455 238.082C95.2522 237.261 94.5681 232.932 93.5743 232.631C93.2808 232.541 93.529 233.247 93.5705 233.551C93.8027 235.251 94.1078 236.951 94.4316 238.636C94.8413 240.767 96.5453 246.992 95.5943 245.042C94.3265 242.441 93.7179 239.474 92.7612 236.75C92.7104 236.606 91.1476 232.524 91.5814 234.86C92.2663 238.549 93.1248 242.189 93.6953 245.903C93.7707 246.394 95.0654 251.432 93.2344 249.13C91.6463 247.133 90.6624 244.692 89.4474 242.467C89.3992 242.379 86.7905 237.379 86.7648 239.145C86.7243 241.923 87.3904 244.852 87.9366 247.559C87.9505 247.628 89.0743 251.638 88.0558 250.611C86.8221 249.367 86.2417 247.582 85.6326 245.99C85.3476 245.244 84.1585 242.026 84.6087 244.876C85.0679 247.783 85.68 250.666 86.1236 253.575C86.3811 255.264 86.3213 255.629 85.6637 253.808C85.0287 252.05 84.4906 250.224 83.7093 248.524C82.7181 246.367 83.0877 250.863 83.1109 251.055C83.5205 254.449 84.3518 257.746 84.4802 261.177C84.5568 263.225 84.3791 263.978 83.3849 261.812C81.8689 258.51 80.4335 255.164 79.2843 251.715C78.5203 249.422 78.1312 249.396 78.1277 251.893C78.1226 255.417 78.8084 258.897 78.9882 262.409C79.041 263.443 79.3357 266.19 78.0481 264.099C76.902 262.238 75.9038 260.266 75.1248 258.224C75.0785 258.102 73.6191 253.935 73.2452 254.953C72.3605 257.362 73.319 261.189 73.4961 263.641C73.6039 265.135 73.691 266.3 73.7548 267.773C73.7816 268.391 74.1833 269.996 73.6863 269.628C72.9079 269.051 70.5882 262.334 70.1208 265.716C69.9891 266.668 70.1794 269.405 69.7029 268.57C68.4665 266.403 68.0699 263.296 67.3167 260.925C67.0688 260.144 66.4315 257.849 66.3519 258.665C66.1231 261.007 66.338 263.408 66.2816 265.758C66.2757 266.003 66.3979 269.741 65.6398 268.193C64.9399 266.764 64.0527 264.482 62.7683 263.481C62.3395 263.147 60.9367 274.294 60.0835 274.015C58.436 273.477 57.9642 269.673 57.6102 273.297" stroke="white" stroke-opacity="0.2" stroke-width="0.7425" stroke-linecap="round"/>
<path d="M85.7261 207.462C85.7687 207.648 84.1127 205.439 83.8836 205.129C82.7709 203.621 83.0473 204.709 83.2488 205.862C83.6013 207.877 84.1673 209.89 84.2363 211.946C84.2574 212.576 84.2174 214.467 83.2115 213.196C81.2079 210.664 79.9982 207.374 78.655 204.477C78.0465 203.164 76.9938 199.384 75.5649 198.552C75.2623 198.375 75.2538 199.207 75.2597 199.557C75.2755 200.497 75.4803 201.996 75.5896 202.877C75.6891 203.679 76.9553 210.177 75.3254 210.33C73.9746 210.457 72.437 205.534 72.1473 204.839C71.0739 202.267 70.0829 199.662 69.0636 197.068C68.3364 195.217 68.6188 196.653 68.8024 197.622C69.2848 200.166 69.8097 202.709 70.045 205.292C70.0497 205.344 70.4917 209.031 69.3625 207.574C67.9419 205.74 66.9044 203.483 65.7287 201.492C64.7284 199.798 63.6936 197.357 61.9737 196.226C60.2499 195.093 59.8701 197.476 59.3901 198.554" stroke="white" stroke-opacity="0.2" stroke-width="0.7425" stroke-linecap="round"/>
<path d="M44.4546 194.262C44.2903 195.126 43.4684 192.799 43.0847 192.008C42.4289 190.656 41.8829 188.98 41.0358 187.717C40.0412 186.232 41.5058 191.26 41.8182 193.019C41.8632 193.272 42.6477 197.06 41.9719 195.684C41.1077 193.924 40.6167 191.662 39.2969 190.172C38.4859 189.256 38.4219 192.366 38.3726 192.682C38.0062 195.033 36.4779 192.43 35.8922 191.537C35.161 190.423 34.4955 189.267 33.8159 188.121C33.6415 187.827 33.0287 186.441 32.5405 186.34C32.0531 186.239 33.2207 191.429 33.2952 191.756" stroke="white" stroke-opacity="0.2" stroke-width="0.7425" stroke-linecap="round"/>
<ellipse cx="319.934" cy="228.175" rx="29.8847" ry="29.9115" transform="rotate(160.856 319.934 228.175)" fill="#147333"/>
<ellipse cx="362.423" cy="238.106" rx="14.9423" ry="14.9558" transform="rotate(160.856 362.423 238.106)" fill="#147333"/>
<path d="M356.601 194.007L282.365 218.952" stroke="#147333" stroke-width="37.125" stroke-linecap="round"/>
<path d="M337.562 274.507L281.499 219.825" stroke="#147333" stroke-width="37.125" stroke-linecap="round"/>
<path d="M291.521 217.208C291.838 216.148 287.472 218.271 287.277 218.378C286.757 218.663 284.432 220.983 284.694 220.418C286.966 215.537 288.938 210.6 290.999 205.628C291.684 203.975 289.81 209.004 289.243 210.701C288.657 212.454 288.112 214.198 287.571 215.965C287.35 216.684 285.636 220.532 286.15 221.349C286.747 222.299 287.641 219.658 288.229 218.702C290.33 215.291 292.247 211.75 294.015 208.155C294.54 207.087 296.913 200.753 295.663 205.709C294.949 208.542 294.003 211.335 293.426 214.2C292.624 218.183 296.479 209.868 296.662 209.486C296.686 209.435 299.27 204.244 299.182 205.186C298.902 208.204 297.882 211.258 297.209 214.208C296.476 217.42 301.951 202.211 301.889 205.505C301.866 206.746 300.275 212.155 301.193 212.958C301.515 213.239 304.456 206.921 304.679 206.398C304.881 205.926 305.382 203.763 305.913 203.43C305.938 203.413 305.485 206.679 305.447 206.873C304.583 211.402 306.731 208.032 307.847 206.009C310.016 202.077 309.1 205.955 308.585 208.209C308.507 208.55 307.491 212.542 307.982 211.6C308.885 209.866 309.515 208.015 310.376 206.266C311.697 203.579 310.629 209.147 310.643 209.684C310.654 210.089 313.118 204.543 313.681 204.433C314.495 204.273 312.81 210.819 313.147 211.175C313.625 211.68 315.947 206.569 315.998 206.458C316.606 205.151 317.161 203.932 317.77 202.629C318.11 201.902 318.742 199.793 318.992 200.556C319.64 202.539 318.435 206.314 318.215 208.269C318.153 208.819 317.574 215.689 318.056 215.053C320.471 211.876 322.708 207.945 324.104 204.203C324.711 202.575 322.775 207.59 323.046 209.307C323.231 210.488 324.669 207.501 325.16 206.411C326.519 203.402 327.652 200.295 328.998 197.28C330.365 194.215 328.067 204.01 326.737 207.092C326.415 207.838 327.058 205.493 327.32 204.723C328.116 202.39 328.771 198.672 330.362 196.736C331.386 195.49 329.726 199.898 329.367 201.47C328.86 203.692 328.353 205.914 327.846 208.136C327.316 210.459 329.144 203.545 329.961 201.306C330.473 199.901 331.398 197.531 331.957 196.117C332.081 195.804 332.903 192.937 333.494 192.661C333.745 192.545 333.138 196.652 333.123 196.725C332.752 198.554 330.973 203.607 332.266 202.26C333.719 200.746 334.379 197.108 335.105 195.253C335.796 193.489 337.356 186.759 339.434 185.934C340.918 185.346 339.554 189.141 339.326 190.721C338.89 193.735 337.906 197.15 338.121 200.217C338.171 200.945 341.23 195.26 341.462 194.758C341.535 194.599 344.257 188.745 344.515 189.061C344.913 189.548 343.394 196.76 344.867 196.048C346.02 195.49 350.546 187.241 351.192 187.634C351.71 187.949 351.341 191.227 352.355 190.123C353.143 189.267 355.175 186.202 354.565 188.874" stroke="white" stroke-opacity="0.2" stroke-width="0.7425" stroke-linecap="round"/>
<path d="M278.968 213.189C277.528 221.551 279.27 215.239 277.76 221.851C277.368 223.571 277.273 223.486 277.932 221.848C278.411 220.658 280.067 215.604 281.304 215.133C281.308 215.132 280.907 220.555 280.866 220.892C280.804 221.405 279.88 227.458 281.191 224.623C282.322 222.173 283.427 219.677 284.43 217.173C285.203 215.244 285.081 215.706 284.831 217.478C284.623 218.951 283.91 220.594 284.056 222.091C284.088 222.41 285.094 219.884 285.206 219.488C285.281 219.224 285.948 217.481 285.032 217.909C283.007 218.854 281.279 220.808 279.423 222.06C278.196 222.888 276.361 224.138 274.868 223.094C273.053 221.824 275.024 216.976 275.387 215.387C275.388 215.381 276.457 210.818 275.93 213.009C275.441 215.04 274.804 217.032 274.172 219.022" stroke="white" stroke-opacity="0.2" stroke-width="0.7425" stroke-linecap="round"/>
<path d="M283.426 230.756C283.812 230.071 284.563 229.04 284.756 230.546C284.802 230.901 284.436 232.902 284.599 232.456C285.053 231.207 285.794 230.07 286.453 228.923C286.689 228.512 287.764 226.429 287.445 228.23C287.126 230.027 286.695 231.792 286.433 233.602C286.389 233.902 285.755 236.768 286.724 235.229C288.298 232.73 289.182 229.829 290.228 227.091C290.581 226.166 290.909 225.267 291.396 224.407C291.862 223.585 291.893 224.036 291.836 224.635C291.459 228.558 288.334 239.715 290.419 236.372C291.499 234.64 292.046 232.356 292.653 230.424C292.992 229.345 293.322 227.869 292.832 230.016C292.523 231.37 291.202 234.596 291.866 235.932C292.03 236.261 292.375 235.388 292.536 235.059C293.276 233.546 293.917 231.977 294.616 230.444C294.936 229.74 295.734 227.419 295.245 229.561C294.699 231.953 294.153 234.344 293.607 236.736C292.627 241.03 295.079 235.586 295.606 234.348C296.267 232.797 295.655 236.196 295.655 236.198C295.282 238.436 294.954 240.666 294.802 242.931C294.689 244.617 296.033 241.188 296.035 241.181C296.926 239.012 297.411 236.768 297.966 234.502C298.326 233.033 298.066 235.636 298.043 235.759C297.739 237.387 296.86 239.499 297.213 241.172C297.428 242.187 298.458 239.477 298.807 238.5C299.1 237.678 299.784 233.35 300.778 233.048C301.072 232.959 300.823 233.664 300.782 233.968C300.55 235.669 300.245 237.369 299.921 239.053C299.511 241.184 297.807 247.41 298.758 245.459C300.026 242.859 300.635 239.891 301.591 237.168C301.642 237.024 303.205 232.941 302.771 235.278C302.086 238.966 301.228 242.607 300.657 246.32C300.582 246.811 299.287 251.849 301.118 249.547C302.706 247.551 303.69 245.109 304.905 242.885C304.953 242.797 307.562 237.797 307.588 239.563C307.628 242.341 306.962 245.269 306.416 247.977C306.402 248.046 305.278 252.055 306.297 251.028C307.53 249.785 308.111 248 308.72 246.407C309.005 245.662 310.194 242.444 309.744 245.294C309.284 248.201 308.672 251.084 308.229 253.993C307.971 255.681 308.031 256.047 308.689 254.226C309.324 252.468 309.862 250.642 310.643 248.941C311.634 246.784 311.265 251.28 311.241 251.473C310.832 254.866 310.001 258.163 309.872 261.595C309.796 263.643 309.973 264.395 310.968 262.23C312.484 258.927 313.919 255.581 315.068 252.132C315.832 249.839 316.221 249.814 316.225 252.311C316.23 255.834 315.544 259.314 315.364 262.827C315.311 263.86 315.017 266.608 316.304 264.517C317.45 262.656 318.449 260.683 319.228 258.641C319.274 258.52 320.733 254.353 321.107 255.371C321.992 257.78 321.033 261.606 320.856 264.059C320.749 265.553 320.661 266.718 320.598 268.191C320.571 268.809 320.169 270.414 320.666 270.045C321.444 269.468 323.764 262.752 324.232 266.134C324.363 267.086 324.173 269.822 324.65 268.987C325.886 266.821 326.283 263.714 327.036 261.342C327.284 260.562 327.921 258.267 328.001 259.082C328.229 261.424 328.014 263.826 328.071 266.176C328.077 266.421 327.955 270.158 328.713 268.61C329.413 267.181 330.3 264.9 331.584 263.899C332.013 263.564 333.416 274.712 334.269 274.433C335.916 273.894 336.388 270.09 336.742 273.714" stroke="white" stroke-opacity="0.2" stroke-width="0.7425" stroke-linecap="round"/>
<path d="M308.626 207.879C308.584 208.066 310.24 205.856 310.469 205.546C311.582 204.038 311.305 205.127 311.104 206.279C310.751 208.295 310.185 210.307 310.116 212.363C310.095 212.993 310.135 214.884 311.141 213.613C313.145 211.082 314.354 207.791 315.697 204.894C316.306 203.582 317.359 199.801 318.788 198.969C319.09 198.793 319.099 199.624 319.093 199.974C319.077 200.914 318.872 202.413 318.763 203.295C318.663 204.096 317.397 210.594 319.027 210.747C320.378 210.874 321.915 205.951 322.205 205.257C323.279 202.684 324.27 200.079 325.289 197.485C326.016 195.634 325.734 197.07 325.55 198.039C325.068 200.584 324.543 203.127 324.307 205.71C324.303 205.761 323.861 209.449 324.99 207.991C326.411 206.157 327.448 203.9 328.624 201.909C329.624 200.215 330.659 197.774 332.379 196.643C334.103 195.51 334.482 197.893 334.962 198.971" stroke="white" stroke-opacity="0.2" stroke-width="0.7425" stroke-linecap="round"/>
<path d="M349.898 194.679C350.062 195.543 350.884 193.216 351.268 192.425C351.923 191.073 352.469 189.398 353.316 188.134C354.311 186.65 352.847 191.677 352.534 193.436C352.489 193.69 351.705 197.478 352.38 196.101C353.245 194.342 353.736 192.079 355.055 190.589C355.866 189.674 355.93 192.783 355.98 193.1C356.346 195.451 357.874 192.847 358.46 191.955C359.191 190.84 359.857 189.684 360.536 188.538C360.711 188.244 361.324 186.859 361.812 186.757C362.299 186.656 361.132 191.847 361.057 192.173" stroke="white" stroke-opacity="0.2" stroke-width="0.7425" stroke-linecap="round"/>
<ellipse cx="29.8847" cy="29.9115" rx="29.8847" ry="29.9115" transform="matrix(0.845411 -0.534116 -0.534116 -0.845411 129.79 358.643)" fill="#F049A0"/>
<ellipse cx="14.9423" cy="14.9558" rx="14.9423" ry="14.9558" transform="matrix(0.845411 -0.534116 -0.534116 -0.845411 115.707 377.429)" fill="#F049A0"/>
<path d="M88.662 321.281L154.451 278.794" stroke="#F049A0" stroke-width="37.125" stroke-linecap="round"/>
<path d="M164.7 356.852L156.904 278.926" stroke="#F049A0" stroke-width="37.125" stroke-linecap="round"/>
<path d="M113.324 249.563C113.755 249.435 110.743 245.543 110.367 245.001C109.309 243.473 109.93 243.758 111.19 244.487C114.136 246.192 116.786 248.328 119.805 249.925C119.953 250.003 121.888 251.212 122.262 250.836C122.846 250.249 120.608 247.737 120.585 247.708C118.027 244.597 114.231 242.146 112.131 238.694C111.58 237.789 116.004 239.938 116.299 240.08C117.736 240.772 120.67 242.877 122.391 242.605C122.638 242.566 120.824 240.835 120.658 240.694C118.718 239.043 123.019 241.133 123.663 241.443C124.064 241.637 121.794 240.075 123.935 240.816C124.071 240.864 125.758 241.697 125.838 241.46C125.895 241.289 122.633 239.856 122.588 239.834C121.16 239.139 119.723 238.448 118.353 237.643C117.931 237.395 116.703 236.716 117.191 236.75C119.034 236.876 121.31 238.459 122.957 239.193" stroke="white" stroke-opacity="0.2" stroke-width="0.7425" stroke-linecap="round"/>
<path d="M148.221 288.342C147.194 287.929 151.576 285.839 151.782 285.753C152.328 285.524 155.592 285.153 154.987 285.006C149.754 283.738 144.665 282.202 139.493 280.714C137.773 280.219 142.874 281.889 144.554 282.503C146.289 283.138 147.993 283.8 149.711 284.478C150.412 284.754 154.489 285.813 154.808 286.724C155.178 287.783 152.555 286.835 151.441 286.7C147.464 286.215 143.501 285.506 139.588 284.647C138.426 284.391 131.994 282.298 136.648 284.411C139.308 285.618 142.081 286.621 144.681 287.956C148.296 289.812 139.391 287.641 138.979 287.546C138.923 287.534 133.253 286.317 134.045 286.836C136.579 288.498 139.602 289.605 142.329 290.918C145.297 292.348 129.993 287.145 132.606 289.151C133.591 289.907 138.812 292.035 138.867 293.254C138.887 293.681 132.113 292.041 131.565 291.889C131.07 291.752 129.067 290.796 128.475 291.003C128.446 291.013 131.283 292.694 131.457 292.786C135.537 294.933 131.564 294.512 129.286 294.123C124.859 293.367 128.463 295.069 130.546 296.072C130.861 296.224 134.616 297.919 133.572 297.715C131.654 297.34 129.814 296.679 127.91 296.26C124.986 295.618 130.004 298.254 130.415 298.601C130.725 298.862 124.853 297.33 124.416 297.701C123.784 298.238 129.952 301.002 130.02 301.488C130.116 302.176 124.674 300.805 124.555 300.776C123.154 300.436 121.854 300.11 120.456 299.774C119.676 299.586 117.633 298.766 118.074 299.436C119.22 301.18 122.922 302.591 124.588 303.638C125.057 303.933 130.789 307.763 129.991 307.744C126.002 307.651 121.534 306.949 117.738 305.707C116.086 305.166 121.214 306.781 122.388 308.062C123.195 308.944 119.964 308.205 118.805 307.91C115.606 307.096 112.47 306.045 109.274 305.217C106.025 304.375 115.116 308.686 118.354 309.567C119.139 309.781 116.904 308.821 116.139 308.546C113.819 307.714 110.504 305.907 107.998 305.944C106.386 305.968 110.866 307.418 112.319 308.118C114.373 309.107 116.426 310.096 118.479 311.085C120.627 312.119 114.081 309.237 111.821 308.48C110.403 308.004 107.973 307.25 106.519 306.805C106.198 306.707 103.444 305.562 102.859 305.853C102.612 305.975 106.201 308.062 106.268 308.096C107.929 308.947 112.988 310.706 111.129 310.877C109.04 311.069 105.784 309.317 103.881 308.728C102.071 308.168 95.837 305.192 93.8963 306.303C92.5112 307.095 96.329 308.395 97.7061 309.202C100.334 310.741 103.618 312.101 105.882 314.181C106.419 314.674 100.068 313.521 99.5303 313.389C99.3607 313.347 93.0869 311.825 93.1729 312.225C93.3054 312.839 99.8916 316.148 98.4162 316.855C97.2607 317.41 87.9904 315.804 87.8946 316.554C87.8177 317.156 90.6105 318.911 89.1152 319.016C87.954 319.098 84.2918 318.776 86.761 319.965" stroke="white" stroke-opacity="0.2" stroke-width="0.7425" stroke-linecap="round"/>
<path d="M152.905 276.021C160.341 280.109 154.319 277.535 160.43 280.478C162.019 281.244 162.013 281.116 160.32 280.61C159.092 280.243 154.108 278.386 152.969 279.06C152.965 279.062 157.456 282.13 157.744 282.308C158.184 282.579 163.492 285.632 160.458 284.888C157.838 284.246 155.197 283.553 152.614 282.776C150.624 282.177 151.061 282.371 152.602 283.279C153.884 284.035 155.613 284.502 156.692 285.55C156.922 285.773 154.32 284.985 153.94 284.826C153.687 284.72 151.908 284.155 152.814 283.705C154.816 282.711 157.421 282.578 159.556 281.908C160.969 281.465 163.091 280.809 163.205 278.992C163.345 276.781 158.324 275.299 156.856 274.592C156.851 274.589 152.617 272.58 154.658 273.534C156.552 274.418 158.506 275.162 160.456 275.909" stroke="white" stroke-opacity="0.2" stroke-width="0.7425" stroke-linecap="round"/>
<path d="M163.86 290.459C163.084 290.334 161.81 290.279 162.867 291.369C163.116 291.626 164.908 292.588 164.458 292.436C163.199 292.013 161.847 291.884 160.54 291.683C160.072 291.612 157.772 291.153 159.38 292.027C160.983 292.898 162.632 293.662 164.21 294.585C164.473 294.738 167.108 296.028 165.301 295.827C162.366 295.5 159.546 294.382 156.754 293.492C155.81 293.192 154.903 292.887 153.927 292.732C152.994 292.584 153.327 292.89 153.831 293.219C157.133 295.37 167.805 299.883 163.89 299.428C161.863 299.193 159.737 298.196 157.848 297.467C156.792 297.059 155.434 296.397 157.417 297.352C158.669 297.955 162.014 298.934 162.644 300.286C162.799 300.619 161.902 300.344 161.544 300.265C159.899 299.9 158.274 299.424 156.64 299.014C155.889 298.825 153.577 298.002 155.557 298.955C157.767 300.019 159.977 301.084 162.187 302.148C166.156 304.059 160.371 302.582 159.074 302.222C157.449 301.772 160.488 303.412 160.49 303.413C162.472 304.518 164.42 305.651 166.286 306.945C167.675 307.908 164.156 306.82 164.149 306.818C161.897 306.162 159.841 305.142 157.723 304.163C156.35 303.529 158.547 304.948 158.659 305.007C160.12 305.784 162.32 306.414 163.407 307.734C164.067 308.534 161.306 307.649 160.324 307.313C159.499 307.03 155.689 304.866 154.833 305.455C154.58 305.629 155.287 305.875 155.55 306.032C157.025 306.911 158.544 307.732 160.063 308.529C161.984 309.538 167.914 312.087 165.796 311.614C162.972 310.984 160.273 309.61 157.547 308.66C157.403 308.609 153.237 307.286 155.334 308.403C158.645 310.168 162.026 311.766 165.285 313.636C165.716 313.883 170.462 316.012 167.521 316.008C164.969 316.005 162.447 315.252 159.951 314.815C159.852 314.798 154.316 313.72 155.681 314.841C157.828 316.605 160.532 317.91 162.99 319.171C163.052 319.203 166.888 320.824 165.45 320.98C163.708 321.169 161.951 320.51 160.326 319.994C159.566 319.752 156.308 318.675 158.817 320.1C161.376 321.553 164.012 322.872 166.563 324.339C168.043 325.191 168.292 325.465 166.458 324.844C164.688 324.245 162.925 323.527 161.108 323.077C158.804 322.507 162.549 325.022 162.714 325.124C165.623 326.919 168.719 328.325 171.482 330.364C173.131 331.581 173.608 332.189 171.295 331.616C167.768 330.742 164.257 329.778 160.844 328.526C158.575 327.694 158.312 327.982 160.262 329.542C163.014 331.743 166.162 333.376 169.021 335.426C169.861 336.029 172.193 337.512 169.756 337.215C167.586 336.95 165.421 336.501 163.339 335.837C163.215 335.797 159.048 334.34 159.61 335.267C160.942 337.461 164.531 339.097 166.559 340.488C167.795 341.335 168.76 341.993 169.951 342.862C170.451 343.226 171.956 343.913 171.358 344.072C170.422 344.321 163.725 341.947 166.077 344.421C166.739 345.117 168.997 346.675 168.048 346.526C165.583 346.142 162.906 344.515 160.583 343.626C159.818 343.333 157.626 342.4 158.214 342.971C159.903 344.61 161.914 345.939 163.716 347.448C163.904 347.606 166.902 349.84 165.219 349.468C163.666 349.124 161.329 348.395 159.745 348.775C159.217 348.902 167.057 356.949 166.307 357.442C164.859 358.395 161.591 356.392 164.203 358.928" stroke="white" stroke-opacity="0.2" stroke-width="0.7425" stroke-linecap="round"/>
<path d="M130.262 295.899C130.434 295.982 127.674 295.899 127.289 295.884C125.416 295.814 126.44 296.277 127.466 296.838C129.262 297.819 131.188 298.631 132.839 299.859C133.344 300.235 134.798 301.446 133.177 301.44C129.949 301.428 126.622 300.322 123.519 299.566C122.114 299.223 118.502 297.689 116.96 298.287C116.634 298.414 117.278 298.939 117.556 299.153C118.3 299.726 119.6 300.501 120.357 300.965C121.046 301.387 126.916 304.449 126.02 305.818C125.276 306.954 120.469 305.086 119.745 304.88C117.065 304.115 114.41 303.266 111.746 302.445C109.846 301.86 111.145 302.534 112.017 302.995C114.307 304.204 116.622 305.379 118.789 306.806C118.832 306.834 121.99 308.788 120.147 308.762C117.827 308.729 115.416 308.133 113.126 307.811C111.178 307.537 108.624 306.824 106.668 307.463C104.707 308.105 106.334 309.887 106.877 310.934" stroke="white" stroke-opacity="0.2" stroke-width="0.7425" stroke-linecap="round"/>
<path d="M94.2095 319.935C94.7823 320.602 92.4508 319.794 91.5931 319.601C90.1272 319.271 88.4768 318.653 86.9605 318.527C85.18 318.38 90.0237 320.369 91.5938 321.222C91.8201 321.344 95.2707 323.093 93.7734 322.763C91.8587 322.342 89.784 321.315 87.7961 321.418C86.5745 321.481 88.9657 323.47 89.1824 323.706C90.792 325.458 87.8035 325.029 86.7406 324.931C85.4137 324.808 84.0946 324.607 82.7752 324.424C82.4365 324.377 80.971 323.992 80.5876 324.311C80.2047 324.629 84.9906 326.952 85.2921 327.097" stroke="white" stroke-opacity="0.2" stroke-width="0.7425" stroke-linecap="round"/>
<ellipse cx="250.859" cy="317.744" rx="29.8847" ry="29.9115" transform="rotate(-147.716 250.859 317.744)" fill="#D2D22D"/>
<ellipse cx="269.587" cy="357.155" rx="14.9423" ry="14.9558" transform="rotate(-147.716 269.587 357.155)" fill="#D2D22D"/>
<path d="M300.701 322.531L234.912 280.044" stroke="#D2D22D" stroke-width="37.125" stroke-linecap="round"/>
<path d="M225.238 357.202L233.034 279.276" stroke="#D2D22D" stroke-width="37.125" stroke-linecap="round"/>
<path d="M276.614 247.396C276.183 247.267 279.196 243.376 279.572 242.833C280.629 241.306 280.009 241.591 278.748 242.32C275.802 244.025 273.152 246.161 270.133 247.758C269.986 247.836 268.05 249.045 267.676 248.668C267.093 248.082 269.33 245.569 269.354 245.541C271.912 242.43 275.708 239.979 277.808 236.527C278.358 235.622 273.934 237.771 273.639 237.913C272.202 238.605 269.268 240.709 267.548 240.437C267.301 240.398 269.114 238.668 269.28 238.526C271.22 236.876 266.92 238.966 266.276 239.276C265.875 239.469 268.144 237.908 266.004 238.649C265.867 238.696 264.18 239.529 264.101 239.293C264.043 239.122 267.306 237.689 267.35 237.667C268.778 236.971 270.215 236.28 271.586 235.475C272.007 235.228 273.235 234.549 272.748 234.582C270.905 234.708 268.628 236.292 266.981 237.026" stroke="white" stroke-opacity="0.2" stroke-width="0.7425" stroke-linecap="round"/>
<path d="M241.717 288.692C242.744 288.279 238.362 286.189 238.157 286.103C237.61 285.874 234.346 285.503 234.951 285.356C240.184 284.088 245.273 282.552 250.446 281.064C252.165 280.569 247.065 282.239 245.384 282.853C243.649 283.488 241.945 284.15 240.227 284.828C239.527 285.105 235.449 286.163 235.131 287.074C234.76 288.134 237.383 287.185 238.497 287.05C242.474 286.565 246.438 285.857 250.35 284.997C251.513 284.741 257.944 282.648 253.29 284.761C250.63 285.968 247.857 286.971 245.257 288.306C241.643 290.162 250.547 287.991 250.96 287.896C251.015 287.884 256.685 286.667 255.893 287.186C253.359 288.849 250.336 289.955 247.609 291.269C244.641 292.698 259.945 287.495 257.332 289.501C256.347 290.257 251.126 292.385 251.071 293.604C251.052 294.031 257.825 292.391 258.373 292.239C258.868 292.102 260.872 291.146 261.463 291.353C261.492 291.363 258.656 293.044 258.481 293.136C254.401 295.284 258.375 294.862 260.652 294.473C265.079 293.717 261.476 295.419 259.393 296.422C259.077 296.574 255.323 298.269 256.366 298.065C258.284 297.69 260.124 297.029 262.028 296.61C264.952 295.968 259.934 298.604 259.523 298.951C259.213 299.212 265.085 297.68 265.522 298.051C266.155 298.588 259.986 301.352 259.918 301.838C259.822 302.527 265.265 301.155 265.383 301.126C266.784 300.786 268.084 300.46 269.482 300.124C270.262 299.936 272.305 299.116 271.865 299.786C270.718 301.53 267.016 302.941 265.35 303.988C264.881 304.283 259.149 308.113 259.947 308.094C263.936 308.001 268.404 307.299 272.201 306.057C273.852 305.516 268.724 307.131 267.55 308.412C266.743 309.294 269.975 308.555 271.133 308.26C274.332 307.446 277.468 306.395 280.664 305.567C283.913 304.725 274.822 309.036 271.584 309.917C270.799 310.131 273.034 309.171 273.799 308.896C276.12 308.064 279.434 306.257 281.94 306.294C283.553 306.318 279.072 307.768 277.619 308.468C275.566 309.457 273.512 310.446 271.459 311.435C269.312 312.469 275.858 309.588 278.117 308.83C279.535 308.354 281.965 307.6 283.419 307.156C283.74 307.057 286.494 305.912 287.079 306.203C287.326 306.326 283.737 308.412 283.671 308.446C282.009 309.297 276.95 311.056 278.809 311.227C280.899 311.419 284.154 309.667 286.058 309.078C287.867 308.518 294.101 305.542 296.042 306.653C297.427 307.445 293.609 308.745 292.232 309.552C289.604 311.091 286.32 312.451 284.056 314.531C283.519 315.024 289.87 313.871 290.408 313.739C290.578 313.698 296.851 312.175 296.765 312.575C296.633 313.189 290.047 316.498 291.522 317.205C292.678 317.76 301.948 316.155 302.044 316.904C302.121 317.506 299.328 319.261 300.823 319.367C301.984 319.448 305.646 319.126 303.177 320.315" stroke="white" stroke-opacity="0.2" stroke-width="0.7425" stroke-linecap="round"/>
<path d="M237.033 276.371C229.597 280.459 235.619 277.885 229.508 280.828C227.919 281.594 227.926 281.466 229.618 280.96C230.847 280.593 235.831 278.737 236.969 279.41C236.973 279.412 232.483 282.48 232.194 282.658C231.755 282.93 226.446 285.982 229.48 285.238C232.1 284.596 234.741 283.903 237.325 283.126C239.314 282.527 238.877 282.721 237.336 283.63C236.055 284.385 234.325 284.852 233.246 285.9C233.016 286.123 235.619 285.336 235.998 285.176C236.251 285.07 238.03 284.505 237.124 284.055C235.122 283.061 232.518 282.928 230.382 282.258C228.969 281.815 226.847 281.16 226.733 279.342C226.594 277.131 231.614 275.649 233.082 274.942C233.088 274.939 237.321 272.93 235.28 273.884C233.386 274.768 231.433 275.513 229.482 276.259" stroke="white" stroke-opacity="0.2" stroke-width="0.7425" stroke-linecap="round"/>
<path d="M226.078 290.809C226.855 290.684 228.128 290.629 227.072 291.719C226.822 291.976 225.03 292.938 225.48 292.787C226.739 292.363 228.091 292.234 229.398 292.033C229.867 291.962 232.166 291.504 230.558 292.377C228.955 293.248 227.306 294.012 225.728 294.935C225.466 295.088 222.83 296.379 224.637 296.177C227.572 295.85 230.392 294.732 233.185 293.842C234.128 293.542 235.035 293.237 236.012 293.082C236.944 292.935 236.611 293.24 236.107 293.569C232.806 295.72 222.134 300.233 226.048 299.778C228.075 299.543 230.202 298.547 232.091 297.817C233.146 297.409 234.505 296.747 232.521 297.702C231.27 298.305 227.924 299.284 227.294 300.636C227.139 300.969 228.036 300.695 228.394 300.615C230.039 300.25 231.665 299.774 233.299 299.364C234.049 299.175 236.361 298.352 234.381 299.305C232.171 300.37 229.961 301.434 227.751 302.498C223.783 304.41 229.567 302.932 230.864 302.572C232.489 302.122 229.45 303.762 229.448 303.763C227.466 304.868 225.518 306.001 223.652 307.295C222.264 308.258 225.783 307.17 225.789 307.168C228.041 306.512 230.097 305.492 232.215 304.513C233.588 303.879 231.391 305.298 231.28 305.357C229.818 306.135 227.619 306.764 226.531 308.084C225.871 308.884 228.633 308 229.614 307.663C230.439 307.381 234.25 305.216 235.105 305.805C235.358 305.979 234.652 306.225 234.388 306.382C232.914 307.261 231.395 308.082 229.876 308.879C227.954 309.888 222.024 312.437 224.142 311.964C226.966 311.334 229.665 309.96 232.391 309.01C232.536 308.959 236.701 307.636 234.605 308.754C231.294 310.518 227.912 312.117 224.653 313.986C224.222 314.233 219.476 316.362 222.418 316.358C224.969 316.355 227.491 315.602 229.988 315.165C230.086 315.148 235.622 314.07 234.257 315.191C232.111 316.955 229.406 318.26 226.949 319.521C226.886 319.553 223.05 321.175 224.488 321.331C226.23 321.52 227.987 320.86 229.612 320.344C230.373 320.102 233.63 319.025 231.121 320.45C228.562 321.903 225.926 323.223 223.376 324.689C221.895 325.541 221.646 325.816 223.48 325.194C225.25 324.595 227.014 323.877 228.83 323.428C231.135 322.857 227.389 325.372 227.224 325.474C224.316 327.269 221.22 328.675 218.457 330.714C216.808 331.931 216.33 332.539 218.643 331.966C222.17 331.093 225.681 330.128 229.094 328.877C231.363 328.044 231.626 328.332 229.676 329.892C226.924 332.093 223.776 333.727 220.918 335.776C220.077 336.379 217.745 337.862 220.183 337.565C222.352 337.3 224.517 336.851 226.599 336.187C226.723 336.147 230.89 334.69 230.328 335.617C228.996 337.811 225.407 339.447 223.379 340.838C222.144 341.685 221.178 342.344 219.987 343.212C219.487 343.576 217.982 344.263 218.58 344.422C219.516 344.671 226.214 342.297 223.861 344.771C223.199 345.467 220.941 347.025 221.891 346.877C224.355 346.492 227.032 344.865 229.355 343.976C230.12 343.683 232.312 342.75 231.724 343.321C230.036 344.96 228.024 346.289 226.222 347.799C226.034 347.956 223.036 350.191 224.719 349.818C226.272 349.474 228.609 348.746 230.193 349.125C230.722 349.252 222.881 357.299 223.631 357.793C225.079 358.745 228.347 356.742 225.735 359.278" stroke="white" stroke-opacity="0.2" stroke-width="0.7425" stroke-linecap="round"/>
<path d="M259.676 296.249C259.504 296.332 262.264 296.249 262.649 296.234C264.522 296.164 263.499 296.627 262.472 297.188C260.676 298.169 258.75 298.981 257.1 300.209C256.594 300.585 255.141 301.796 256.761 301.79C259.99 301.778 263.317 300.672 266.419 299.916C267.824 299.573 271.437 298.039 272.978 298.638C273.305 298.764 272.66 299.289 272.382 299.503C271.638 300.076 270.338 300.851 269.581 301.315C268.892 301.737 263.022 304.799 263.919 306.169C264.662 307.304 269.47 305.436 270.193 305.23C272.874 304.465 275.528 303.616 278.192 302.795C280.092 302.21 278.793 302.885 277.921 303.345C275.631 304.554 273.316 305.729 271.15 307.156C271.106 307.184 267.948 309.138 269.792 309.112C272.111 309.079 274.523 308.483 276.812 308.161C278.76 307.887 281.314 307.174 283.27 307.814C285.231 308.455 283.605 310.238 283.062 311.285" stroke="white" stroke-opacity="0.2" stroke-width="0.7425" stroke-linecap="round"/>
<path d="M295.729 320.286C295.156 320.953 297.488 320.145 298.345 319.951C299.811 319.621 301.462 319.003 302.978 318.878C304.758 318.73 299.915 320.719 298.345 321.572C298.118 321.695 294.668 323.443 296.165 323.113C298.08 322.692 300.154 321.665 302.142 321.768C303.364 321.831 300.973 323.82 300.756 324.056C299.146 325.808 302.135 325.38 303.198 325.281C304.525 325.158 305.844 324.958 307.163 324.775C307.502 324.728 308.967 324.343 309.351 324.661C309.734 324.979 304.948 327.303 304.646 327.448" stroke="white" stroke-opacity="0.2" stroke-width="0.7425" stroke-linecap="round"/>
</svg>
