<svg width="135" height="135" viewBox="0 0 135 135" fill="none" xmlns="http://www.w3.org/2000/svg">
<g clip-path="url(#clip0_1576_3949)">
<path d="M93.9167 75.4362C93.9167 73.7794 92.5735 72.4362 90.9167 72.4362H70.875C69.2181 72.4362 67.875 73.7794 67.875 75.4362V96.6959C67.875 98.3527 69.2181 99.6959 70.875 99.6959H90.9167C92.5735 99.6959 93.9167 98.3527 93.9167 96.6959V75.4362ZM91.7083 12.4651C90.0515 12.4651 88.7083 13.8082 88.7083 15.4651V20.3689C88.7083 22.0258 87.3652 23.3689 85.7083 23.3689H50.0417C48.3848 23.3689 47.0417 22.0258 47.0417 20.3689V15.4651C47.0417 13.8082 45.6985 12.4651 44.0417 12.4651H39.625C37.9681 12.4651 36.625 13.8082 36.625 15.4651V20.3689C36.625 22.0258 35.2819 23.3689 33.625 23.3689H31.4167C25.6615 23.3689 21.0521 28.2484 21.0521 34.2728L21 110.6C21 116.624 25.6615 121.504 31.4167 121.504H104.333C110.089 121.504 114.75 116.624 114.75 110.6V34.2728C114.75 28.2484 110.089 23.3689 104.333 23.3689H102.125C100.468 23.3689 99.125 22.0258 99.125 20.3689V15.4651C99.125 13.8082 97.7819 12.4651 96.125 12.4651H91.7083ZM104.333 107.6C104.333 109.257 102.99 110.6 101.333 110.6H34.4167C32.7598 110.6 31.4167 109.257 31.4167 107.6V53.6285C31.4167 51.9717 32.7598 50.6286 34.4167 50.6286H101.333C102.99 50.6286 104.333 51.9717 104.333 53.6286V107.6Z" fill="#0056AD" stroke="white"/>
</g>
<defs>
<clipPath id="clip0_1576_3949">
<rect width="135" height="135" fill="white" transform="translate(0 0.00354004)"/>
</clipPath>
</defs>
</svg>
