<svg width="137" height="125" viewBox="0 0 137 125" fill="none" xmlns="http://www.w3.org/2000/svg">
<path d="M79.3914 11.0274C69.986 11.5008 61.2193 9.45967 49.5303 14.5139C43.3096 17.2038 37.8658 21.341 33.6795 26.5604C29.4932 31.7798 26.6932 37.9208 25.5266 44.4412C25.0041 47.3226 24.859 46.8962 12.6475 70.7565C12.1809 71.6633 11.9601 72.6708 12.0059 73.6837C12.0518 74.6966 12.3629 75.6814 12.9097 76.5448C13.4565 77.4081 14.2209 78.1216 15.1306 78.6175C16.0403 79.1135 17.0651 79.3755 18.1081 79.3789H24.8816V95.7864C24.8841 98.0865 25.8252 100.292 27.4984 101.918C29.1716 103.545 31.4401 104.459 33.8063 104.462H40.5539C41.4949 104.462 42.3974 104.825 43.0627 105.472C43.7281 106.119 44.1019 106.996 44.1019 107.911V111.046C44.1019 112.626 44.7476 114.142 45.8969 115.259C47.0461 116.376 48.6049 117.004 50.2302 117.004H88.9355C90.5608 117.004 92.1196 116.376 93.2688 115.259C94.4181 114.142 95.0638 112.626 95.0638 111.046C95.0638 99.2227 101.495 92.861 103.976 88.0388C106.602 83.8557 109.458 79.8135 112.533 75.9299C133.063 49.7149 114.029 11.0274 79.3914 11.0274ZM49.9077 111.046V107.911C49.9077 105.499 48.9222 103.187 47.168 101.481C45.4139 99.7762 43.0347 98.8183 40.5539 98.8183H33.8063C32.9794 98.8174 32.1866 98.4977 31.6018 97.9293C31.0171 97.3609 30.6882 96.5902 30.6873 95.7864V91.7668C36.7748 91.1393 42.4546 88.4944 46.7726 84.2763C47.0422 84.0143 47.256 83.7031 47.402 83.3607C47.5479 83.0183 47.623 82.6513 47.623 82.2807C47.623 81.91 47.5479 81.543 47.402 81.2006C47.256 80.8582 47.0422 80.5471 46.7726 80.285C46.503 80.0229 46.1829 79.815 45.8307 79.6732C45.4784 79.5314 45.1009 79.4584 44.7196 79.4584C44.3383 79.4584 43.9608 79.5314 43.6085 79.6732C43.2563 79.815 42.9362 80.0229 42.6666 80.285C39.4344 83.4406 35.2258 85.4774 30.6873 86.0823V79.3005C30.6856 77.825 30.0819 76.4104 29.0086 75.367C27.9353 74.3237 26.4801 73.7368 24.9622 73.7352C17.5437 73.7352 17.9791 73.8073 17.8372 73.5878C17.8069 73.5408 17.7908 73.4865 17.7908 73.431C17.7908 73.3756 17.8069 73.3212 17.8372 73.2743C29.0843 50.8876 30.3874 50.1476 31.2421 45.4101C32.6929 37.3508 37.0245 30.0484 43.4731 24.7906C49.9217 19.5327 58.073 16.6572 66.4897 16.6711C96.283 16.6711 112.675 49.9595 95.0122 72.5186C87.5679 82.0283 85.2423 86.7251 81.7653 92.1274C78.2273 97.8387 76.3573 104.379 76.3563 111.046C76.3563 111.129 76.3223 111.209 76.2618 111.268C76.2013 111.327 76.1193 111.36 76.0337 111.36C49.2981 111.216 49.9077 111.673 49.9077 111.046Z" fill="#0056AD"/>
<path d="M84.6857 30.6637C82.0524 28.2352 78.9255 26.3087 75.4837 24.9943C72.042 23.6799 68.353 23.0034 64.6274 23.0034C60.9018 23.0034 57.2127 23.6799 53.771 24.9943C50.3293 26.3087 47.2024 28.2352 44.569 30.6637C42.8294 32.2667 41.0705 35.2526 42.5615 40.3768C46.5248 54.0068 73.9159 77.5521 84.6857 67.6308C87.3215 65.2043 89.4125 62.323 90.8391 59.1515C92.2657 55.9799 93 52.5804 93 49.1472C93 45.714 92.2657 42.3145 90.8391 39.143C89.4125 35.9714 87.3215 33.0901 84.6857 30.6637ZM54.3642 38.4735C53.5938 38.4735 52.855 38.1915 52.3103 37.6895C51.7656 37.1875 51.4595 36.5067 51.4595 35.7968C51.4595 35.0869 51.7656 34.4061 52.3103 33.9042C52.855 33.4022 53.5938 33.1202 54.3642 33.1202H73.7287C74.499 33.1202 75.2379 33.4022 75.7826 33.9042C76.3273 34.4061 76.6333 35.0869 76.6333 35.7968C76.6333 36.5067 76.3273 37.1875 75.7826 37.6895C75.2379 38.1915 74.499 38.4735 73.7287 38.4735H54.3642ZM57.5916 45.9085C57.5916 45.1986 57.8976 44.5178 58.4424 44.0159C58.9871 43.5139 59.7259 43.2319 60.4963 43.2319H79.8608C80.6311 43.2319 81.3699 43.5139 81.9147 44.0159C82.4594 44.5178 82.7654 45.1986 82.7654 45.9085C82.7654 46.6184 82.4594 47.2992 81.9147 47.8012C81.3699 48.3031 80.6311 48.5851 79.8608 48.5851H60.4801C60.0984 48.5851 59.7205 48.5158 59.3678 48.3811C59.0152 48.2464 58.6949 48.049 58.4251 47.8001C58.1553 47.5513 57.9414 47.2558 57.7956 46.9307C57.6499 46.6057 57.5751 46.2573 57.5755 45.9055L57.5916 45.9085ZM80.1835 58.6968H70.5013C69.7309 58.6968 68.9921 58.4148 68.4474 57.9128C67.9026 57.4109 67.5966 56.7301 67.5966 56.0202C67.5966 55.3103 67.9026 54.6295 68.4474 54.1275C68.9921 53.6256 69.7309 53.3436 70.5013 53.3436H80.1835C80.9539 53.3436 81.6927 53.6256 82.2374 54.1275C82.7822 54.6295 83.0882 55.3103 83.0882 56.0202C83.0882 56.7301 82.7822 57.4109 82.2374 57.9128C81.6927 58.4148 80.9539 58.6968 80.1835 58.6968Z" fill="#0056AD"/>
</svg>
