<svg width="113" height="112" viewBox="0 0 113 112" fill="none" xmlns="http://www.w3.org/2000/svg">
<g clip-path="url(#clip0_1486_3990)">
<path d="M10.5848 12.4012C10.5848 18.9044 15.872 24.1916 22.3752 24.1916C28.8784 24.1916 34.1656 18.9044 34.1656 12.4012C34.1656 5.89802 28.8784 0.610804 22.3752 0.610804C15.872 0.610804 10.5848 5.89802 10.5848 12.4012ZM16.6983 12.4012C16.6983 9.27119 19.2452 6.72434 22.3752 6.72434C25.5052 6.72434 28.0521 9.27119 28.0521 12.4012C28.0521 15.5312 25.5052 18.0781 22.3752 18.0781C19.2452 18.0781 16.6983 15.5312 16.6983 12.4012ZM83.9472 58.6894C83.9472 63.7428 88.0642 67.8597 93.1176 67.8597C98.171 67.8597 102.288 63.7428 102.288 58.6894C102.288 53.636 98.171 49.5191 93.1176 49.5191C88.0642 49.5191 83.9472 53.636 83.9472 58.6894ZM90.0608 58.6894C90.0608 57.0005 91.4286 55.6326 93.1176 55.6326C94.8065 55.6326 96.1743 57.0005 96.1743 58.6894C96.1743 60.3784 94.8065 61.7462 93.1176 61.7462C91.4286 61.7462 90.0608 60.3784 90.0608 58.6894ZM44.6459 12.4012C44.6459 18.9044 49.9331 24.1916 56.4363 24.1916C62.9395 24.1916 68.2267 18.9044 68.2267 12.4012C68.2267 5.89802 62.9395 0.610804 56.4363 0.610804C49.9331 0.610804 44.6459 5.89802 44.6459 12.4012ZM50.7595 12.4012C50.7595 9.27119 53.3063 6.72434 56.4363 6.72434C59.5663 6.72434 62.1132 9.27119 62.1132 12.4012C62.1132 15.5312 59.5663 18.0781 56.4363 18.0781C53.3063 18.0781 50.7595 15.5312 50.7595 12.4012Z" fill="#0056AD" stroke="#0056AD" stroke-width="0.873362"/>
<path d="M109.864 85.4236L109.864 85.4238L111.401 93.8675L109.864 85.4236ZM109.864 85.4236C108.416 77.4759 102.05 71.4668 94.0273 70.4948C85.0776 69.4085 78.181 62.3942 77.2536 53.4378L77.2536 53.437M109.864 85.4236L77.2536 53.437M77.2536 53.437L76.3016 44.3279C76.3016 44.3279 76.3016 44.3279 76.3016 44.3278C75.2333 34.0931 66.6753 26.3749 56.3849 26.3749C52.1318 26.3749 48.0657 27.6902 44.6321 30.1832C43.071 31.3136 42.7226 33.5014 43.8521 35.0617C44.9825 36.6232 47.1706 36.9719 48.7311 35.8422L48.7317 35.8417M77.2536 53.437L48.7317 35.8417M48.7317 35.8417C50.9668 34.2207 53.6083 33.3618 56.3849 33.3618C63.0904 33.3618 68.6632 38.3863 69.3591 45.0508L69.3591 45.0509M48.7317 35.8417L69.3591 45.0509M69.3591 45.0509L70.311 54.1599C71.107 61.7839 75.075 68.3645 80.9002 72.6058V85.7636C80.9002 89.075 82.2304 92.0885 84.381 94.2885L69.3591 45.0509ZM97.3369 111.956L97.3616 111.958L97.3646 111.958C97.3777 111.959 97.3982 111.96 97.4196 111.962C97.4432 111.963 97.4753 111.964 97.5116 111.964C99.3403 111.964 100.878 110.544 100.995 108.692L100.995 108.691L101.868 94.7176L101.868 94.7157C101.926 93.7538 101.59 92.8082 100.922 92.1053C100.26 91.4086 99.3242 91.0037 98.3587 91.0037H93.1185C90.2297 91.0037 87.8784 88.6524 87.8784 85.7636V76.2342C89.5737 76.807 91.3487 77.215 93.1885 77.4341C98.1622 78.0345 102.1 81.7463 102.993 86.6704L102.993 86.6711L104.53 95.1142C104.834 96.8095 106.316 97.9819 107.966 97.9819C108.186 97.9819 108.394 97.9575 108.581 97.9264L108.585 97.9256C110.495 97.5976 111.749 95.763 111.401 93.8692L97.3369 111.956Z" fill="#0056AD" stroke="#0056AD" stroke-width="1.74672"/>
<path d="M64.2972 68.2963C64.2972 66.3642 65.8585 64.8029 67.7906 64.8029C69.7227 64.8029 71.2841 66.3642 71.2841 68.2963V83.1435C71.2841 86.3078 68.8726 88.9152 65.7894 89.226L64.2859 108.738C64.1459 110.569 62.6093 111.964 60.8037 111.964H60.7947C60.7402 111.965 60.6334 111.965 60.5167 111.952C58.6083 111.792 57.1712 110.123 57.3216 108.203L64.2972 68.2963ZM64.2972 68.2963V82.2701M64.2972 68.2963V82.2701M64.2972 82.2701H48.467C48.0801 80.7619 46.7136 79.65 45.0832 79.65C43.1511 79.65 41.5897 81.2114 41.5897 83.1435C41.5897 86.3078 44.0012 88.9152 47.0844 89.226L48.5879 108.738C48.7277 110.568 50.2539 111.964 52.0701 111.964L52.0824 111.964C52.1374 111.965 52.2478 111.965 52.3621 111.951C54.268 111.789 55.7024 110.121 55.5522 108.203L64.2972 82.2701ZM43.1145 44.3395L43.1146 44.3395L43.1134 44.3279C42.0452 34.0931 33.4872 26.3749 23.1967 26.3749C12.1467 26.3749 3.16179 35.3598 3.16179 46.4099V71.7898C3.16179 75.3659 5.32325 78.4463 8.40197 79.7972V103.231C8.40197 108.045 12.3214 111.964 17.1356 111.964C19.1067 111.964 20.9198 111.304 22.3758 110.205C23.8317 111.304 25.6449 111.964 27.6159 111.964C32.4302 111.964 36.3496 108.045 36.3496 103.231V80.5234C36.3496 78.5913 34.7882 77.03 32.8561 77.03C30.924 77.03 29.3627 78.5913 29.3627 80.5234V103.231C29.3627 104.19 28.5746 104.978 27.6159 104.978C26.6572 104.978 25.8692 104.19 25.8692 103.231V71.7898C25.8692 69.8577 24.3079 68.2963 22.3758 68.2963C20.4436 68.2963 18.8823 69.8577 18.8823 71.7898V103.231C18.8823 104.19 18.0943 104.978 17.1356 104.978C16.1769 104.978 15.3889 104.19 15.3889 103.231V77.03C15.3889 75.0978 13.8275 73.5365 11.8954 73.5365C10.9367 73.5365 10.1487 72.7485 10.1487 71.7898V46.4099C10.1487 39.2154 16.0022 33.3618 23.1967 33.3618C29.845 33.3618 35.3823 38.305 36.1487 44.8877V71.7898C36.1487 73.7219 37.71 75.2832 39.6421 75.2832C41.5743 75.2832 43.1356 73.7219 43.1356 71.7898V44.6893C43.1356 44.5666 43.1244 44.4462 43.1169 44.3649C43.1161 44.3559 43.1153 44.3475 43.1145 44.3395ZM55.5521 108.202L54.0961 89.257H58.7777L57.3217 108.202H55.5521Z" fill="#0056AD" stroke="#0056AD" stroke-width="1.74672"/>
</g>
<defs>
<clipPath id="clip0_1486_3990">
<rect width="111.79" height="111.79" fill="white" transform="translate(0.541016 0.17395)"/>
</clipPath>
</defs>
</svg>
