<svg width="71" height="72" viewBox="0 0 71 72" fill="none" xmlns="http://www.w3.org/2000/svg">
<path d="M13.0756 65.0826C13.3381 65.1926 13.6199 65.2495 13.9044 65.25L13.9102 65.25C14.4567 65.2478 14.9839 65.0381 15.3815 64.6606C15.3817 64.6603 15.382 64.66 15.3823 64.6598L26.6682 54H53.8281C55.6015 54 57.305 53.3053 58.5631 52.0644C59.8216 50.8231 60.5312 49.1365 60.5312 47.375V47.25H60.6719C61.5502 47.25 62.4203 47.0794 63.2326 46.7475C64.0448 46.4157 64.7838 45.929 65.4068 45.3144C66.0299 44.6999 66.5249 43.9696 66.8629 43.1648C67.2009 42.36 67.375 41.4969 67.375 40.625V13.625C67.375 11.8635 66.6654 10.1769 65.4068 8.93556C64.1487 7.69469 62.4452 7 60.6719 7H15.0469C13.2735 7 11.5701 7.69469 10.3119 8.93556C9.05337 10.1769 8.34375 11.8635 8.34375 13.625V13.75H8.20312C6.42976 13.75 4.7263 14.4447 3.46819 15.6856C2.20962 16.9269 1.5 18.6135 1.5 20.375V47.375C1.5 49.1365 2.20962 50.8231 3.46819 52.0644C4.7263 53.3053 6.42976 54 8.20312 54H11.7656V63.125V63.1258C11.766 63.546 11.8918 63.9557 12.1257 64.3037C12.3595 64.6514 12.6904 64.9216 13.0756 65.0826ZM13.0756 65.0826C13.0757 65.0826 13.0758 65.0827 13.0759 65.0827L13.4614 64.16L13.074 65.0819C13.0746 65.0821 13.0751 65.0824 13.0756 65.0826ZM60.5312 43V20.375C60.5312 18.6135 59.8216 16.9269 58.5631 15.6856C57.305 14.4447 55.6015 13.75 53.8281 13.75H12.625V13.625C12.625 12.9996 12.8768 12.397 13.3295 11.9505C13.7826 11.5035 14.4001 11.25 15.0469 11.25H60.6719C61.3186 11.25 61.9361 11.5035 62.3893 11.9505C62.842 12.397 63.0938 12.9996 63.0938 13.625V40.625C63.0938 41.2504 62.842 41.853 62.3893 42.2995C61.9361 42.7465 61.3186 43 60.6719 43H60.5312ZM25.8144 49.75L25.8105 49.75C25.2643 49.7521 24.7375 49.9616 24.34 50.3386C24.3395 50.3392 24.3389 50.3397 24.3383 50.3402L16.0469 58.1723V51.875C16.0469 51.3069 15.8179 50.765 15.415 50.3675C15.0125 49.9706 14.4696 49.75 13.9062 49.75H8.20312C7.55639 49.75 6.93887 49.4965 6.48571 49.0495C6.03301 48.603 5.78125 48.0004 5.78125 47.375V20.375C5.78125 19.7496 6.03301 19.147 6.48571 18.7005C6.93887 18.2535 7.55639 18 8.20312 18H53.8281C54.4749 18 55.0924 18.2535 55.5455 18.7005C55.9982 19.147 56.25 19.7496 56.25 20.375V47.375C56.25 48.0004 55.9982 48.603 55.5455 49.0495C55.0924 49.4965 54.4749 49.75 53.8281 49.75L25.8144 49.75ZM23.1719 29.3743L23.1712 30.375H24.1719H26.4531H27.4531V29.375C27.4531 28.6859 27.6602 28.011 28.0499 27.4358C28.4398 26.8604 28.9953 26.4099 29.6478 26.1433C30.3005 25.8766 31.0194 25.8067 31.7132 25.9428C32.4069 26.0789 33.0422 26.4144 33.5396 26.905C34.0368 27.3954 34.3738 28.0185 34.5102 28.6948C34.6466 29.371 34.5767 30.072 34.3088 30.7099C34.0409 31.3479 33.5862 31.8954 33.0001 32.2816C32.4139 32.668 31.7233 32.875 31.0156 32.875C30.4523 32.875 29.9093 33.0956 29.5069 33.4925C29.1039 33.89 28.875 34.4319 28.875 35V40.625V41.625H29.875H32.1562H33.1562V40.625V36.8352C34.3095 36.512 35.377 35.9306 36.2733 35.1307C37.3827 34.1406 38.1837 32.8568 38.5799 31.4296C38.9762 30.0024 38.9505 28.493 38.5061 27.0798C38.0617 25.6667 37.2177 24.4103 36.0755 23.4575C34.9334 22.5049 33.5406 21.8952 32.0615 21.6986C30.5824 21.502 29.0768 21.7263 27.7216 22.3459C26.3662 22.9656 25.2167 23.9554 24.4098 25.2005C23.6029 26.4458 23.1729 27.894 23.1719 29.3743ZM33.1562 42.875V41.875H32.1562H29.875H28.875V42.875V45.125V46.125H29.875H32.1562H33.1562V45.125V42.875Z" fill="#0056AD" stroke="#0056AD" stroke-width="2"/>
</svg>
