<svg width="54" height="54" viewBox="0 0 54 54" fill="none" xmlns="http://www.w3.org/2000/svg">
<ellipse cx="4.02487" cy="4.02849" rx="4.02487" ry="4.02849" transform="matrix(0.139173 0.990268 0.990268 -0.139173 9.19482 12.4146)" fill="#FC007A"/>
<ellipse cx="2.01244" cy="2.01425" rx="2.01244" ry="2.01425" transform="matrix(0.139173 0.990268 0.990268 -0.139173 7.66846 9.64502)" fill="#FC007A"/>
<path d="M15.5865 9.34583L17.1583 19.7756" stroke="#FC007A" stroke-width="5" stroke-linecap="round"/>
<path d="M7.48151 16.7994L17.4798 20.1585" stroke="#FC007A" stroke-width="5" stroke-linecap="round"/>
<path d="M16.8044 18.5707C16.912 18.4675 16.9259 19.1212 16.925 19.1512C16.9228 19.231 16.7876 19.6523 16.8392 19.5861C17.2847 19.0139 17.7551 18.4742 18.2243 17.9217C18.3803 17.738 17.8928 18.2717 17.7243 18.4439C17.5502 18.6218 17.3746 18.7943 17.1962 18.9677C17.1235 19.0383 16.7677 19.4802 16.6382 19.4689C16.4876 19.4557 16.7493 19.1862 16.8277 19.057C17.1074 18.5956 17.4139 18.1483 17.7362 17.7156C17.8319 17.587 18.4451 16.9134 17.928 17.3677C17.6324 17.6274 17.3558 17.9123 17.0478 18.1576C16.6198 18.4984 17.3795 17.5255 17.414 17.4801C17.4186 17.474 17.882 16.8454 17.7744 16.9138C17.43 17.1328 17.1267 17.4427 16.8144 17.7047C16.4746 17.9899 17.9609 16.3993 17.5699 16.609C17.4226 16.688 16.8722 17.2111 16.7195 17.1503C16.666 17.1291 17.2425 16.3884 17.2915 16.3295C17.3357 16.2763 17.5641 16.0833 17.5715 15.9993C17.5718 15.9952 17.2083 16.2502 17.1874 16.2666C16.6977 16.6485 16.9695 16.184 17.1434 15.926C17.4815 15.4243 17.073 15.7725 16.8344 15.9727C16.7983 16.003 16.3823 16.37 16.4651 16.2532C16.6174 16.0385 16.8005 15.8493 16.9573 15.6387C17.1981 15.3153 16.5965 15.7854 16.5312 15.8166C16.482 15.8402 16.9953 15.2042 16.9739 15.1299C16.9431 15.0226 16.2621 15.6267 16.1987 15.6082C16.1088 15.5818 16.5787 14.9896 16.5888 14.9767C16.7081 14.8236 16.8201 14.682 16.9388 14.529C17.0051 14.4437 17.2189 14.2383 17.1122 14.2552C16.8347 14.2994 16.4564 14.6757 16.2356 14.8222C16.1734 14.8635 15.3858 15.355 15.4322 15.2581C15.6646 14.7735 15.9983 14.2639 16.3611 13.8667C16.5189 13.6939 16.0367 14.234 15.8144 14.3071C15.6614 14.3574 15.9311 14.0016 16.0314 13.8757C16.3087 13.528 16.6113 13.2012 16.89 12.8547C17.1733 12.5025 16.1406 13.3798 15.853 13.7285C15.7833 13.813 16.0249 13.5918 16.101 13.5131C16.3318 13.2744 16.7371 12.9675 16.8714 12.6578C16.9577 12.4586 16.5315 12.9283 16.3652 13.0679C16.13 13.2652 15.8949 13.4625 15.6597 13.6598C15.4138 13.8662 16.1302 13.2221 16.3484 12.9867C16.4853 12.839 16.7124 12.5825 16.8476 12.4285C16.8774 12.3946 17.1705 12.1199 17.1673 12.032C17.1659 11.9949 16.7109 12.32 16.7031 12.3262C16.5066 12.4831 16.0104 13.0067 16.0924 12.769C16.1846 12.5019 16.58 12.1992 16.7577 11.9982C16.9266 11.8071 17.6373 11.2066 17.6085 10.9068C17.5879 10.6929 17.2168 11.0895 17.0415 11.2139C16.707 11.4513 16.3582 11.7792 15.9774 11.9419C15.8871 11.9805 16.3805 11.2647 16.4264 11.206C16.4409 11.1874 16.9753 10.5015 16.9215 10.49C16.8387 10.4722 16.0678 11.0975 16.0626 10.8772C16.0586 10.7046 16.7691 9.65548 16.6823 9.60218C16.6128 9.55943 16.2426 9.80505 16.3125 9.61565C16.3668 9.46857 16.6092 9.03685 16.3264 9.2741" stroke="white" stroke-opacity="0.2" stroke-width="0.1" stroke-linecap="round"/>
<path d="M18.0574 19.8283C17.1436 20.5147 17.7932 19.9181 17.0934 20.5052C16.9114 20.6579 16.9274 20.6641 17.0833 20.4844C17.1964 20.3539 17.7004 19.8449 17.6808 19.6678C17.6808 19.6672 17.0554 20.0486 17.0175 20.0741C16.9599 20.113 16.2912 20.5957 16.5505 20.2644C16.7745 19.9783 17.0058 19.6925 17.2443 19.4184C17.428 19.2073 17.38 19.2503 17.1831 19.3891C17.0194 19.5045 16.8662 19.691 16.6779 19.7654C16.6377 19.7813 16.8785 19.5054 16.9191 19.4677C16.9462 19.4425 17.114 19.2554 17.1191 19.3915C17.1303 19.6923 17.0023 20.0195 16.9662 20.3187C16.9424 20.5167 16.9054 20.8135 17.1222 20.9282C17.3859 21.0678 17.8458 20.5336 18.014 20.3925C18.0146 20.392 18.4958 19.9835 18.2656 20.1813C18.0522 20.3648 17.8526 20.5634 17.6529 20.7614" stroke="white" stroke-opacity="0.2" stroke-width="0.1" stroke-linecap="round"/>
<path d="M15.6781 20.3735C15.7365 20.2851 15.8138 20.1318 15.6214 20.2011C15.5761 20.2175 15.3588 20.3842 15.4023 20.3374C15.524 20.2062 15.6147 20.0475 15.7117 19.8981C15.7465 19.8446 15.9301 19.5876 15.7338 19.7366C15.5381 19.8853 15.353 20.0454 15.1523 20.188C15.1189 20.2117 14.8145 20.4638 14.9393 20.253C15.142 19.9108 15.4355 19.6266 15.6994 19.3331C15.7885 19.2339 15.8762 19.1394 15.9493 19.0281C16.0191 18.9218 15.9631 18.9458 15.8948 18.9895C15.4479 19.2756 14.3028 20.3358 14.5754 19.8804C14.7166 19.6446 14.9567 19.4387 15.1509 19.2472C15.2594 19.1402 15.416 19.0101 15.1888 19.2007C15.0455 19.321 14.74 19.6775 14.5391 19.68C14.4897 19.6806 14.573 19.5856 14.6026 19.546C14.7385 19.3643 14.8871 19.1911 15.0279 19.0133C15.0926 18.9315 15.3217 18.6934 15.095 18.8836C14.8419 19.096 14.5889 19.3083 14.3358 19.5207C13.8814 19.902 14.3831 19.2737 14.4991 19.1344C14.6444 18.9598 14.2747 19.2421 14.2745 19.2423C14.0291 19.4244 13.7821 19.6008 13.5199 19.7582C13.3248 19.8753 13.6532 19.5036 13.6538 19.5029C13.8591 19.2628 14.0982 19.0668 14.3357 18.861C14.4896 18.7277 14.1937 18.9188 14.1803 18.9291C14.0039 19.0655 13.8047 19.3006 13.5825 19.3611C13.4477 19.3978 13.7093 19.1077 13.8049 19.0059C13.8853 18.9203 14.3621 18.5723 14.3371 18.4347C14.3298 18.394 14.2605 18.4671 14.2266 18.4908C14.0371 18.6231 13.8521 18.7641 13.6701 18.9064C13.4399 19.0865 12.7985 19.6732 12.9738 19.4394C13.2076 19.1277 13.5258 18.8724 13.7934 18.5904C13.8076 18.5754 14.2008 18.1373 13.9475 18.3328C13.5475 18.6416 13.164 18.9682 12.754 19.2647C12.6998 19.3039 12.1755 19.7686 12.3389 19.4077C12.4806 19.0947 12.7128 18.8268 12.9046 18.5445C12.9122 18.5333 13.3512 17.9135 13.138 18.0189C12.8025 18.1847 12.4925 18.4445 12.2016 18.6763C12.1942 18.6822 11.7827 19.0633 11.8432 18.8781C11.9164 18.6538 12.0947 18.4746 12.2481 18.3037C12.3199 18.2238 12.6326 17.8835 12.3187 18.1126C11.9985 18.3463 11.6906 18.5968 11.3692 18.8287C11.1827 18.9633 11.1352 18.9786 11.313 18.7879C11.4847 18.6038 11.6704 18.4271 11.8262 18.229C12.0239 17.9776 11.5077 18.2982 11.4861 18.3128C11.1045 18.5704 10.7605 18.8726 10.3571 19.0988C10.1164 19.2339 10.0153 19.2588 10.2137 19.0066C10.5164 18.622 10.8292 18.2444 11.1719 17.8947C11.3998 17.6623 11.3789 17.6141 11.0795 17.7671C10.6568 17.983 10.2819 18.279 9.872 18.5163C9.75144 18.5862 9.44024 18.7903 9.61171 18.5075C9.76435 18.2558 9.9394 18.015 10.1363 17.7961C10.148 17.7831 10.5577 17.3522 10.4127 17.3699C10.0697 17.4119 9.66998 17.7619 9.38689 17.9338C9.21448 18.0386 9.08021 18.1206 8.9076 18.2187C8.83517 18.2599 8.66752 18.4067 8.68112 18.3245C8.70243 18.1957 9.36485 17.505 8.93085 17.6568C8.80863 17.6995 8.49239 17.8905 8.56317 17.7821C8.74684 17.5008 9.09484 17.2623 9.33276 17.0263C9.4111 16.9487 9.64695 16.7313 9.54435 16.7718C9.24962 16.8883 8.97503 17.0616 8.68989 17.1993C8.66017 17.2136 8.21978 17.4579 8.3587 17.2719C8.48694 17.1003 8.70587 16.8537 8.74694 16.6383C8.76065 16.5664 7.33847 17.0832 7.31948 16.9638C7.28282 16.7333 7.70971 16.443 7.25362 16.6232" stroke="white" stroke-opacity="0.2" stroke-width="0.1" stroke-linecap="round"/>
<path d="M16.8715 15.9479C16.8517 15.9644 17.0148 15.6302 17.0379 15.5837C17.1502 15.3577 17.0368 15.4577 16.9111 15.5526C16.6911 15.7187 16.4847 15.9102 16.2426 16.0448C16.1684 16.0861 15.9393 16.1974 16.0298 15.9988C16.21 15.6031 16.5301 15.256 16.7947 14.917C16.9146 14.7634 17.3031 14.405 17.315 14.1826C17.3175 14.1355 17.2173 14.1856 17.1757 14.2078C17.0641 14.2674 16.897 14.3841 16.7981 14.4513C16.7081 14.5125 16.0071 15.0635 15.8887 14.8776C15.7905 14.7235 16.286 14.2367 16.3514 14.1593C16.5938 13.8726 16.8451 13.5938 17.0934 13.3122C17.2705 13.1114 17.1157 13.2335 17.0109 13.315C16.7356 13.5291 16.4631 13.7483 16.168 13.9352C16.1621 13.939 15.7473 14.2185 15.8526 13.9936C15.9851 13.7106 16.1919 13.4476 16.3582 13.1844C16.4998 12.9604 16.7288 12.6864 16.7586 12.4108C16.7884 12.1346 16.4795 12.2355 16.3209 12.2442" stroke="white" stroke-opacity="0.2" stroke-width="0.1" stroke-linecap="round"/>
<path d="M15.9174 10.1906C15.8037 10.224 16.0321 9.98251 16.1033 9.88792C16.225 9.72626 16.3923 9.55787 16.4917 9.37869C16.6085 9.16829 16.096 9.65272 15.9043 9.79825C15.8767 9.81922 15.471 10.146 15.5944 9.98044C15.7522 9.76874 15.9931 9.57089 16.0906 9.32117C16.1505 9.1677 15.7739 9.3511 15.733 9.36463C15.4287 9.46518 15.6468 9.12203 15.7178 8.99701C15.8064 8.84092 15.9041 8.6901 15.9996 8.53826C16.0242 8.49929 16.1526 8.3407 16.1347 8.27597C16.1169 8.21135 15.5666 8.67021 15.532 8.69918" stroke="white" stroke-opacity="0.2" stroke-width="0.1" stroke-linecap="round"/>
<ellipse cx="39.7694" cy="15.969" rx="4.02487" ry="4.02849" transform="rotate(98 39.7694 15.969)" fill="#0056AD"/>
<ellipse cx="43.5705" cy="11.4869" rx="2.01244" ry="2.01425" transform="rotate(98 43.5705 11.4869)" fill="#0056AD"/>
<path d="M37.9272 9.47523L36.3553 19.905" stroke="#0056AD" stroke-width="5" stroke-linecap="round"/>
<path d="M46.0322 16.9288L36.0338 20.2879" stroke="#0056AD" stroke-width="5" stroke-linecap="round"/>
<path d="M36.7092 18.7001C36.6017 18.5969 36.5878 19.2506 36.5886 19.2806C36.5908 19.3604 36.726 19.7817 36.6745 19.7155C36.229 19.1433 35.7586 18.6036 35.2893 18.0511C35.1333 17.8674 35.6208 18.4011 35.7894 18.5733C35.9635 18.7512 36.1391 18.9237 36.3175 19.0971C36.3902 19.1677 36.746 19.6096 36.8755 19.5983C37.026 19.5851 36.7644 19.3156 36.686 19.1864C36.4063 18.725 36.0997 18.2777 35.7775 17.845C35.6817 17.7164 35.0685 17.0428 35.5856 17.4971C35.8812 17.7568 36.1579 18.0417 36.4658 18.287C36.8939 18.6278 36.1341 17.6549 36.0997 17.6095C36.095 17.6034 35.6316 16.9748 35.7392 17.0432C36.0836 17.2622 36.387 17.5721 36.6992 17.8341C37.0391 18.1193 35.5528 16.5287 35.9437 16.7384C36.0911 16.8174 36.6415 17.3405 36.7942 17.2797C36.8477 17.2585 36.2711 16.5178 36.2222 16.4589C36.178 16.4057 35.9496 16.2127 35.9422 16.1287C35.9418 16.1246 36.3053 16.3796 36.3263 16.396C36.8159 16.7779 36.5441 16.3134 36.3702 16.0554C36.0322 15.5537 36.4407 15.9019 36.6792 16.1021C36.7153 16.1324 37.1314 16.4994 37.0485 16.3826C36.8962 16.1679 36.7132 15.9787 36.5563 15.7681C36.3155 15.4447 36.9171 15.9147 36.9824 15.946C37.0317 15.9696 36.5184 15.3336 36.5397 15.2593C36.5706 15.152 37.2515 15.7561 37.3149 15.7376C37.4049 15.7112 36.935 15.119 36.9249 15.1061C36.8056 14.953 36.6936 14.8114 36.5748 14.6584C36.5086 14.5731 36.2947 14.3677 36.4014 14.3846C36.6789 14.4288 37.0573 14.8051 37.2781 14.9516C37.3403 14.9929 38.1279 15.4844 38.0815 15.3875C37.849 14.9029 37.5154 14.3933 37.1526 13.9961C36.9948 13.8233 37.477 14.3634 37.6993 14.4365C37.8522 14.4867 37.5826 14.1309 37.4822 14.0051C37.205 13.6574 36.9024 13.3306 36.6237 12.9841C36.3404 12.6319 37.3731 13.5092 37.6607 13.8579C37.7303 13.9424 37.4887 13.7212 37.4126 13.6425C37.1819 13.4038 36.7766 13.0969 36.6423 12.7872C36.5559 12.588 36.9821 13.0577 37.1485 13.1973C37.3836 13.3946 37.6188 13.5919 37.8539 13.7892C38.0998 13.9955 37.3835 13.3515 37.1653 13.1161C37.0284 12.9684 36.8013 12.7118 36.6661 12.5579C36.6363 12.524 36.3432 12.2493 36.3464 12.1614C36.3478 12.1243 36.8028 12.4494 36.8106 12.4556C37.0071 12.6125 37.5033 13.1361 37.4213 12.8984C37.3291 12.6313 36.9337 12.3286 36.756 12.1276C36.587 11.9365 35.8764 11.3359 35.9052 11.0362C35.9258 10.8223 36.2969 11.2189 36.4721 11.3433C36.8066 11.5807 37.1555 11.9086 37.5362 12.0713C37.6266 12.1099 37.1332 11.3941 37.0872 11.3353C37.0727 11.3168 36.5384 10.6309 36.5921 10.6194C36.675 10.6016 37.4459 11.2269 37.4511 11.0066C37.4551 10.834 36.7446 9.78487 36.8313 9.73157C36.9009 9.68882 37.2711 9.93445 37.2012 9.74505C37.1469 9.59797 36.9045 9.16624 37.1872 9.4035" stroke="white" stroke-opacity="0.2" stroke-width="0.1" stroke-linecap="round"/>
<path d="M35.4563 19.9577C36.37 20.6441 35.7205 20.0474 36.4203 20.6346C36.6022 20.7873 36.5863 20.7935 36.4304 20.6138C36.3173 20.4833 35.8133 19.9743 35.8329 19.7972C35.8329 19.7966 36.4583 20.178 36.4961 20.2035C36.5538 20.2424 37.2225 20.7251 36.9632 20.3938C36.7392 20.1077 36.5079 19.8219 36.2694 19.5478C36.0857 19.3367 36.1337 19.3796 36.3306 19.5185C36.4943 19.6339 36.6475 19.8204 36.8358 19.8948C36.876 19.9107 36.6351 19.6348 36.5945 19.597C36.5675 19.5719 36.3996 19.3848 36.3946 19.5209C36.3834 19.8217 36.5114 20.1488 36.5474 20.4481C36.5713 20.6461 36.6083 20.9429 36.3915 21.0576C36.1278 21.1972 35.6678 20.663 35.4997 20.5219C35.4991 20.5214 35.0179 20.1129 35.248 20.3107C35.4615 20.4942 35.6611 20.6928 35.8608 20.8908" stroke="white" stroke-opacity="0.2" stroke-width="0.1" stroke-linecap="round"/>
<path d="M37.8356 20.5029C37.7772 20.4145 37.6998 20.2612 37.8922 20.3305C37.9376 20.3469 38.1549 20.5136 38.1114 20.4668C37.9897 20.3356 37.8989 20.1769 37.802 20.0275C37.7672 19.974 37.5836 19.717 37.7799 19.866C37.9756 20.0147 38.1607 20.1748 38.3614 20.3174C38.3948 20.3411 38.6992 20.5932 38.5743 20.3824C38.3716 20.0402 38.0782 19.756 37.8143 19.4625C37.7252 19.3633 37.6375 19.2688 37.5644 19.1575C37.4946 19.0512 37.5506 19.0752 37.6188 19.1189C38.0658 19.405 39.2109 20.4652 38.9383 20.0098C38.7971 19.7739 38.557 19.5681 38.3628 19.3766C38.2543 19.2696 38.0977 19.1395 38.3248 19.3301C38.4682 19.4504 38.7736 19.8069 38.9746 19.8093C39.024 19.81 38.9406 19.715 38.9111 19.6754C38.7752 19.4937 38.6266 19.3205 38.4858 19.1427C38.4211 19.0609 38.1919 18.8228 38.4187 19.013C38.6717 19.2254 38.9248 19.4377 39.1779 19.6501C39.6323 20.0314 39.1305 19.4031 39.0145 19.2638C38.8692 19.0892 39.239 19.3715 39.2392 19.3717C39.4846 19.5538 39.7316 19.7301 39.9938 19.8876C40.1889 20.0047 39.8605 19.633 39.8599 19.6323C39.6545 19.3922 39.4155 19.1962 39.178 18.9904C39.024 18.8571 39.32 19.0482 39.3334 19.0585C39.5098 19.1949 39.7089 19.43 39.9312 19.4905C40.0659 19.5272 39.8044 19.2371 39.7088 19.1353C39.6284 19.0497 39.1516 18.7017 39.1765 18.5641C39.1839 18.5234 39.2532 18.5965 39.2871 18.6202C39.4766 18.7525 39.6616 18.8935 39.8436 19.0358C40.0738 19.2159 40.7152 19.8026 40.5398 19.5688C40.3061 19.257 39.9879 19.0018 39.7202 18.7198C39.706 18.7048 39.3129 18.2667 39.5662 18.4622C39.9662 18.771 40.3497 19.0975 40.7597 19.3941C40.8139 19.4333 41.3382 19.898 41.1748 19.5371C41.0331 19.2241 40.8009 18.9562 40.609 18.6739C40.6014 18.6627 40.1625 18.0429 40.3757 18.1483C40.7111 18.3141 41.0212 18.5739 41.3121 18.8057C41.3195 18.8116 41.731 19.1927 41.6705 19.0075C41.5972 18.7832 41.419 18.604 41.2655 18.4331C41.1937 18.3532 40.8811 18.0129 41.195 18.242C41.5152 18.4757 41.8231 18.7262 42.1445 18.9581C42.331 19.0927 42.3785 19.108 42.2007 18.9173C42.029 18.7332 41.8432 18.5565 41.6874 18.3584C41.4898 18.107 42.0059 18.4276 42.0276 18.4422C42.4091 18.6998 42.7532 19.002 43.1566 19.2282C43.3973 19.3633 43.4984 19.3882 43.2999 19.136C42.9973 18.7514 42.6845 18.3737 42.3418 18.0241C42.1139 17.7916 42.1347 17.7434 42.4342 17.8964C42.8568 18.1124 43.2317 18.4084 43.6417 18.6457C43.7622 18.7156 44.0734 18.9197 43.902 18.6369C43.7493 18.3852 43.5743 18.1444 43.3774 17.9255C43.3657 17.9125 42.956 17.4816 43.101 17.4993C43.444 17.5413 43.8437 17.8913 44.1268 18.0632C44.2992 18.168 44.4335 18.25 44.6061 18.3481C44.6785 18.3893 44.8462 18.5361 44.8325 18.4539C44.8112 18.3251 44.1488 17.6344 44.5828 17.7862C44.705 17.8289 45.0213 18.0199 44.9505 17.9115C44.7668 17.6302 44.4188 17.3917 44.1809 17.1557C44.1026 17.0781 43.8667 16.8607 43.9693 16.9012C44.264 17.0177 44.5386 17.191 44.8238 17.3287C44.8535 17.343 45.2939 17.5873 45.155 17.4013C45.0267 17.2297 44.8078 16.9831 44.7667 16.7677C44.753 16.6958 46.1752 17.2126 46.1942 17.0932C46.2309 16.8627 45.804 16.5724 46.2601 16.7526" stroke="white" stroke-opacity="0.2" stroke-width="0.1" stroke-linecap="round"/>
<path d="M36.6422 16.0772C36.6619 16.0938 36.4989 15.7596 36.4758 15.7131C36.3635 15.4871 36.4769 15.5871 36.6026 15.682C36.8225 15.8481 37.029 16.0396 37.2711 16.1742C37.3453 16.2155 37.5744 16.3268 37.4839 16.1282C37.3036 15.7325 36.9836 15.3854 36.7189 15.0464C36.599 14.8928 36.2106 14.5344 36.1987 14.312C36.1962 14.2649 36.2963 14.315 36.3379 14.3372C36.4496 14.3968 36.6167 14.5135 36.7156 14.5807C36.8056 14.6419 37.5065 15.1929 37.625 15.007C37.7232 14.8529 37.2276 14.3661 37.1622 14.2887C36.9199 14.002 36.6686 13.7232 36.4203 13.4416C36.2432 13.2408 36.398 13.3629 36.5028 13.4444C36.7781 13.6585 37.0506 13.8777 37.3457 14.0646C37.3516 14.0684 37.7664 14.3479 37.661 14.123C37.5285 13.84 37.3218 13.577 37.1554 13.3138C37.0139 13.0898 36.7849 12.8158 36.7551 12.5402C36.7252 12.264 37.0342 12.3649 37.1928 12.3736" stroke="white" stroke-opacity="0.2" stroke-width="0.1" stroke-linecap="round"/>
<path d="M37.5963 10.32C37.7099 10.3534 37.4816 10.1119 37.4104 10.0173C37.2886 9.85565 37.1214 9.68726 37.0219 9.50808C36.9052 9.29769 37.4177 9.78212 37.6093 9.92764C37.6369 9.94862 38.0427 10.2754 37.9193 10.1098C37.7615 9.89813 37.5206 9.70029 37.4231 9.45056C37.3631 9.2971 37.7398 9.48049 37.7807 9.49403C38.085 9.59457 37.8668 9.25143 37.7959 9.1264C37.7073 8.97031 37.6096 8.81949 37.514 8.66765C37.4895 8.62868 37.3611 8.47009 37.379 8.40537C37.3968 8.34075 37.9471 8.7996 37.9816 8.82858" stroke="white" stroke-opacity="0.2" stroke-width="0.1" stroke-linecap="round"/>
<ellipse cx="4.02487" cy="4.02849" rx="4.02487" ry="4.02849" transform="matrix(-0.529919 0.848048 0.848048 0.529919 25.3716 3.4209)" fill="#F45956"/>
<ellipse cx="2.01244" cy="2.01425" rx="2.01244" ry="2.01425" transform="matrix(-0.529919 0.848048 0.848048 0.529919 25.9824 0.318359)" fill="#F45956"/>
<path d="M32.2402 5.17822L26.7402 14.1782" stroke="#F45956" stroke-width="5" stroke-linecap="round"/>
<path d="M21.2402 5.67822L26.7402 14.6782" stroke="#F45956" stroke-width="5" stroke-linecap="round"/>
<path d="M27.2433 13.0285C27.3921 13.0186 26.9825 13.5282 26.9626 13.5507C26.9096 13.6104 26.5352 13.8462 26.6172 13.8287C27.3263 13.6767 28.0336 13.5656 28.7482 13.444C28.9858 13.4036 28.2693 13.499 28.0294 13.5226C27.7818 13.547 27.5364 13.5662 27.2882 13.5844C27.1871 13.5918 26.6305 13.7016 26.5386 13.6097C26.4318 13.5028 26.8054 13.4646 26.9485 13.4159C27.4594 13.2423 27.9818 13.0967 28.5067 12.9723C28.6628 12.9354 29.5655 12.8135 28.8773 12.8292C28.484 12.8381 28.0889 12.8786 27.6953 12.8685C27.1483 12.8544 28.3557 12.5975 28.4113 12.5849C28.4188 12.5832 29.1778 12.3995 29.0514 12.3828C28.6468 12.3291 28.2153 12.3715 27.8076 12.3715C27.364 12.3715 29.525 12.1084 29.0907 12.0178C28.927 11.9836 28.1691 12.0305 28.0912 11.8858C28.0639 11.8351 28.9817 11.6384 29.057 11.6247C29.1251 11.6124 29.4241 11.6114 29.4838 11.5517C29.4867 11.5488 29.0443 11.5105 29.0177 11.5096C28.3971 11.4874 28.9039 11.3063 29.203 11.2204C29.7844 11.0534 29.2477 11.0576 28.9363 11.0576C28.8892 11.0576 28.3345 11.0713 28.473 11.0351C28.7277 10.9685 28.9896 10.9412 29.2451 10.8807C29.6375 10.7878 28.8744 10.7611 28.8043 10.7431C28.7515 10.7295 29.5535 10.5722 29.5849 10.5017C29.6302 10.3996 28.7203 10.4247 28.6836 10.3697C28.6316 10.2918 29.3722 10.1401 29.3883 10.1367C29.5781 10.0961 29.7549 10.0597 29.9442 10.0188C30.0498 9.99595 30.3457 9.97608 30.2531 9.9205C30.0121 9.77592 29.4803 9.82101 29.2171 9.79135C29.1429 9.78299 28.2236 9.6532 28.3214 9.60885C28.811 9.38704 29.3942 9.21108 29.9274 9.13999C30.1593 9.10906 29.4428 9.21286 29.2255 9.12595C29.076 9.06616 29.5113 8.96694 29.6691 8.93503C30.1049 8.84689 30.5468 8.7911 30.983 8.70481C31.4265 8.6171 30.0714 8.62531 29.627 8.70762C29.5193 8.72756 29.8465 8.7134 29.9555 8.702C30.2857 8.66745 30.7934 8.69293 31.0953 8.54197C31.2896 8.44486 30.6611 8.53074 30.444 8.53074C30.137 8.53074 29.83 8.53074 29.5231 8.53074C29.2021 8.53074 30.1648 8.49786 30.4833 8.45774C30.6831 8.43257 31.022 8.38207 31.2245 8.35105C31.2692 8.34421 31.6703 8.32219 31.7242 8.25279C31.7471 8.22344 31.1896 8.18004 31.1796 8.17979C30.9282 8.17366 30.2115 8.25581 30.4271 8.12645C30.6695 7.98105 31.1669 8.00337 31.4322 7.96361C31.6845 7.92581 32.6149 7.92257 32.7855 7.67443C32.9073 7.49732 32.368 7.56265 32.1538 7.54528C31.745 7.51213 31.267 7.53901 30.8707 7.41894C30.7767 7.39045 31.6148 7.15925 31.6877 7.14379C31.7107 7.13892 32.561 6.95698 32.5272 6.91357C32.4752 6.84671 31.4827 6.83016 31.6204 6.65808C31.7282 6.5233 32.9468 6.17631 32.9147 6.07972C32.8888 6.00224 32.4474 5.95247 32.6227 5.8523C32.7588 5.77452 33.222 5.59962 32.8529 5.59962" stroke="white" stroke-opacity="0.2" stroke-width="0.1" stroke-linecap="round"/>
<path d="M27.395 14.7971C26.2538 14.7356 27.1349 14.6961 26.2215 14.6961C25.9839 14.6961 25.9922 14.7111 26.2271 14.6736C26.3976 14.6464 27.1109 14.5804 27.2097 14.4321C27.2101 14.4316 26.4859 14.3218 26.4404 14.317C26.3713 14.3098 25.5487 14.2497 25.9603 14.1626C26.3158 14.0874 26.6767 14.0171 27.0357 13.9605C27.3121 13.9168 27.2477 13.9189 27.0076 13.8987C26.808 13.8819 26.5708 13.9262 26.3787 13.8622C26.3377 13.8485 26.6995 13.792 26.7549 13.7892C26.7918 13.7873 27.0406 13.7519 26.957 13.8594C26.7722 14.097 26.4639 14.2654 26.2439 14.4714C26.0984 14.6078 25.8793 14.8113 25.9716 15.0386C26.0839 15.315 26.7796 15.2014 26.9992 15.2014C26.9999 15.2014 27.6311 15.1978 27.3276 15.2014C27.0462 15.2048 26.7656 15.2286 26.4854 15.252" stroke="white" stroke-opacity="0.2" stroke-width="0.1" stroke-linecap="round"/>
<path d="M25.2219 13.6855C25.3234 13.6554 25.4812 13.5877 25.2893 13.5171C25.244 13.5004 24.9704 13.4885 25.0338 13.4806C25.2113 13.4584 25.3829 13.3951 25.5532 13.343C25.6142 13.3243 25.92 13.2455 25.6739 13.2335C25.4284 13.2216 25.1837 13.2252 24.9383 13.2054C24.8975 13.2022 24.5023 13.1996 24.7334 13.1184C25.1086 12.9866 25.5161 12.9575 25.9069 12.9022C26.0389 12.8836 26.1668 12.8675 26.2944 12.8292C26.4162 12.7927 26.3579 12.7751 26.2775 12.7647C25.7512 12.6965 24.1925 12.7726 24.694 12.599C24.9538 12.5091 25.2701 12.5057 25.5419 12.4839C25.6938 12.4717 25.8974 12.4727 25.6009 12.4727C25.4138 12.4727 24.9507 12.5494 24.7951 12.4221C24.7569 12.3908 24.8818 12.3717 24.9299 12.3604C25.1507 12.3085 25.3759 12.2714 25.5981 12.2256C25.7002 12.2046 26.0288 12.1694 25.7329 12.1694C25.4025 12.1694 25.0721 12.1694 24.7418 12.1694C24.1486 12.1694 24.9368 12.0107 25.1152 11.9785C25.3387 11.9382 24.874 11.9168 24.8737 11.9168C24.5687 11.8986 24.2661 11.8749 23.9641 11.8269C23.7393 11.7913 24.2299 11.7176 24.2308 11.7174C24.5424 11.6655 24.8515 11.6691 25.1657 11.6641C25.3694 11.6609 25.0198 11.617 25.0029 11.6164C24.7801 11.6074 24.4764 11.6595 24.2673 11.563C24.1405 11.5045 24.5273 11.4504 24.666 11.4339C24.7826 11.42 25.3715 11.4599 25.4409 11.3384C25.4614 11.3025 25.3613 11.314 25.3201 11.3103C25.0899 11.2899 24.8576 11.279 24.6267 11.271C24.3346 11.2609 23.4661 11.2981 23.7507 11.2317C24.1301 11.1432 24.538 11.1522 24.9243 11.1082C24.9448 11.1058 25.5276 11.023 25.2078 11.0099C24.703 10.9893 24.1992 10.9929 23.6945 10.9566C23.6278 10.9518 22.9275 10.9708 23.2846 10.7993C23.5944 10.6507 23.9445 10.5946 24.2729 10.5017C24.2859 10.4981 25.0206 10.3054 24.7895 10.2491C24.426 10.1605 24.0215 10.1602 23.6496 10.1508C23.6401 10.1506 23.08 10.178 23.2453 10.075C23.4456 9.95028 23.6974 9.92756 23.9248 9.8953C24.0312 9.88021 24.4894 9.82052 24.1016 9.79423C23.7062 9.76742 23.3093 9.76138 22.914 9.73246C22.6846 9.71568 22.6384 9.69687 22.8972 9.66508C23.1471 9.6344 23.4029 9.61845 23.6496 9.56682C23.9626 9.50131 23.3612 9.41512 23.3352 9.4124C22.8773 9.36448 22.4195 9.37484 21.9651 9.28887C21.6939 9.23756 21.6004 9.19167 21.9145 9.12603C22.3936 9.02592 22.876 8.93773 23.3632 8.89019C23.6872 8.85858 23.7022 8.80826 23.3745 8.73296C22.9119 8.62671 22.4345 8.61248 21.9679 8.53082C21.8306 8.5068 21.461 8.46315 21.7742 8.35675C22.0529 8.26203 22.3418 8.19007 22.6333 8.14899C22.6506 8.14654 23.2414 8.07977 23.119 8.00018C22.8292 7.81183 22.2981 7.82302 21.9707 7.77277C21.7713 7.74216 21.6157 7.71869 21.4204 7.68293C21.3384 7.66792 21.1157 7.67257 21.1789 7.61835C21.278 7.53344 22.2294 7.43011 21.7994 7.2674C21.6783 7.22158 21.3133 7.16457 21.4372 7.12702C21.7588 7.0296 22.1786 7.07062 22.5126 7.0428C22.6225 7.03363 22.9429 7.01872 22.8382 6.98384C22.5376 6.88362 22.2158 6.83988 21.9089 6.76204C21.8769 6.75392 21.3826 6.65798 21.6085 6.60481C21.8171 6.55573 22.1433 6.50762 22.3132 6.36898C22.37 6.32268 20.9483 5.80444 21.0105 5.70077C21.1306 5.5006 21.6442 5.55263 21.1789 5.39755" stroke="white" stroke-opacity="0.2" stroke-width="0.1" stroke-linecap="round"/>
<path d="M28.9809 11.062C28.9551 11.062 29.2948 10.9108 29.3425 10.89C29.5737 10.7891 29.4226 10.7927 29.2652 10.7847C28.99 10.7706 28.7088 10.7846 28.4367 10.732C28.3534 10.7159 28.1063 10.654 28.3033 10.56C28.6958 10.3728 29.1641 10.3125 29.5847 10.223C29.7753 10.1824 30.3032 10.1575 30.4553 9.99481C30.4875 9.96035 30.3786 9.93432 30.3324 9.9246C30.2086 9.89853 30.0056 9.88048 29.8866 9.86843C29.7783 9.85746 28.8872 9.829 28.9159 9.61041C28.9398 9.42923 29.6323 9.37488 29.7321 9.35765C30.1021 9.2938 30.4738 9.24174 30.845 9.18563C31.1098 9.1456 30.9127 9.13964 30.78 9.13473C30.4315 9.12182 30.0819 9.11454 29.7356 9.06803C29.7287 9.0671 29.2313 9.01463 29.4566 8.91006C29.7399 8.77848 30.0674 8.70988 30.364 8.61517C30.6164 8.53459 30.968 8.47188 31.1679 8.27991C31.3684 8.08752 31.0668 7.96625 30.9398 7.87094" stroke="white" stroke-opacity="0.2" stroke-width="0.1" stroke-linecap="round"/>
<path d="M31.9511 6.03857C31.8427 5.99111 32.1728 5.95292 32.2881 5.92624C32.4853 5.88064 32.7217 5.85916 32.913 5.78582C33.1377 5.69969 32.4337 5.74134 32.1934 5.72965C32.1587 5.72796 31.6378 5.71747 31.8388 5.66997C32.0958 5.60923 32.4075 5.61254 32.6427 5.48391C32.7873 5.40486 32.3809 5.30328 32.3408 5.28732C32.0431 5.16876 32.4308 5.04611 32.5655 4.99595C32.7337 4.93332 32.9055 4.88058 33.0763 4.82569C33.1201 4.8116 33.3204 4.77266 33.3483 4.71159C33.3762 4.65062 32.6597 4.6484 32.6146 4.6484" stroke="white" stroke-opacity="0.2" stroke-width="0.1" stroke-linecap="round"/>
<ellipse cx="4.02487" cy="4.02849" rx="4.02487" ry="4.02849" transform="matrix(0.944697 0.327943 0.327943 -0.944697 5.34326 33.4321)" fill="#DA9446"/>
<ellipse cx="2.01244" cy="2.01425" rx="2.01244" ry="2.01425" transform="matrix(0.944697 0.327943 0.327943 -0.944697 2.18262 33.5269)" fill="#DA9446"/>
<path d="M5.52883 26.3448L15.527 29.7044" stroke="#DA9446" stroke-width="5" stroke-linecap="round"/>
<path d="M8.46389 36.9576L16.0145 29.593" stroke="#DA9446" stroke-width="5" stroke-linecap="round"/>
<path d="M14.2936 29.4695C14.2509 29.3267 14.8389 29.6126 14.8652 29.627C14.9352 29.6654 15.2484 29.9779 15.213 29.9019C14.9071 29.2444 14.6415 28.5795 14.3639 27.9099C14.2716 27.6873 14.5241 28.3646 14.6005 28.5931C14.6793 28.8292 14.7527 29.0641 14.8256 29.302C14.8553 29.399 15.0862 29.9172 15.017 30.0272C14.9366 30.1552 14.8162 29.7994 14.737 29.6707C14.454 29.2113 14.1958 28.7344 13.9578 28.2503C13.887 28.1064 13.5674 27.2534 13.7357 27.9208C13.832 28.3023 13.9593 28.6785 14.037 29.0644C14.1451 29.6009 13.6259 28.4809 13.6013 28.4295C13.598 28.4226 13.25 27.7235 13.2618 27.8504C13.2995 28.2568 13.4369 28.6681 13.5276 29.0655C13.6263 29.498 12.889 27.4497 12.8972 27.8933C12.9003 28.0605 13.1147 28.7889 12.9909 28.8971C12.9476 28.935 12.5516 28.0841 12.5215 28.0136C12.4943 27.95 12.4268 27.6587 12.3554 27.6138C12.3519 27.6116 12.413 28.0514 12.418 28.0776C12.5345 28.6875 12.2451 28.2337 12.0948 27.9612C11.8027 27.4316 11.9261 27.9539 11.9954 28.2575C12.0059 28.3035 12.1427 28.8411 12.0766 28.7141C11.955 28.4807 11.8701 28.2314 11.7543 27.9958C11.5764 27.6339 11.7202 28.3838 11.7182 28.4561C11.7167 28.5107 11.3849 27.7638 11.3092 27.7489C11.1995 27.7274 11.4265 28.609 11.381 28.6569C11.3166 28.7249 11.004 28.0366 10.997 28.0217C10.9152 27.8457 10.8404 27.6814 10.7584 27.506C10.7127 27.4081 10.6275 27.1241 10.5939 27.2268C10.5065 27.4938 10.6688 28.0022 10.6985 28.2655C10.7068 28.3397 10.7848 29.2648 10.7198 29.1793C10.3947 28.7514 10.0934 28.222 9.9054 27.7179C9.82363 27.4987 10.0843 28.1742 10.0479 28.4054C10.0229 28.5644 9.82927 28.1621 9.76305 28.0154C9.58015 27.6101 9.42743 27.1917 9.24625 26.7856C9.06207 26.3728 9.37157 27.692 9.55071 28.107C9.59411 28.2076 9.50749 27.8917 9.47215 27.788C9.36499 27.4738 9.27685 26.9731 9.0625 26.7123C8.92461 26.5446 9.14816 27.1381 9.19648 27.3498C9.26478 27.6491 9.33308 27.9484 9.40138 28.2477C9.4728 28.5606 9.22654 27.6293 9.11657 27.3278C9.04756 27.1385 8.92292 26.8194 8.84763 26.6289C8.83102 26.5868 8.72031 26.2007 8.64064 26.1635C8.60695 26.1478 8.68867 26.701 8.69066 26.7108C8.74061 26.9572 8.98017 27.6376 8.80607 27.4562C8.6104 27.2523 8.52148 26.7624 8.42367 26.5125C8.33069 26.275 8.12052 25.3687 7.84064 25.2575C7.64088 25.1782 7.82455 25.6894 7.85528 25.9022C7.91393 26.3081 8.04649 26.7681 8.01759 27.1812C8.01074 27.2792 7.59887 26.5136 7.56756 26.4459C7.55769 26.4245 7.19113 25.6361 7.15633 25.6787C7.10271 25.7442 7.30741 26.7156 7.10902 26.6196C6.95363 26.5445 6.34418 25.4336 6.25717 25.4865C6.18738 25.5289 6.23708 25.9703 6.10042 25.8217C5.9943 25.7063 5.72072 25.2937 5.80285 25.6535" stroke="white" stroke-opacity="0.2" stroke-width="0.1" stroke-linecap="round"/>
<path d="M15.9843 28.928C16.1782 30.0542 15.9436 29.204 16.1468 30.0946C16.1997 30.3262 16.2125 30.3148 16.1237 30.0941C16.0592 29.9339 15.8362 29.2532 15.6696 29.1898C15.6691 29.1896 15.7231 29.9201 15.7286 29.9654C15.7369 30.0345 15.8613 30.8498 15.6849 30.4679C15.5324 30.138 15.3836 29.8018 15.2485 29.4645C15.1445 29.2047 15.1608 29.267 15.1946 29.5056C15.2226 29.704 15.3186 29.9253 15.2989 30.1269C15.2947 30.1699 15.1591 29.8297 15.144 29.7763C15.134 29.7408 15.0441 29.506 15.1675 29.5636C15.4403 29.6909 15.673 29.9541 15.9229 30.1227C16.0882 30.2342 16.3354 30.4026 16.5364 30.262C16.7809 30.091 16.5153 29.438 16.4665 29.224C16.4663 29.2232 16.3224 28.6087 16.3934 28.9037C16.4593 29.1773 16.545 29.4456 16.6301 29.7136" stroke="white" stroke-opacity="0.2" stroke-width="0.1" stroke-linecap="round"/>
<path d="M15.3841 31.2939C15.332 31.2017 15.2309 31.0629 15.2048 31.2657C15.1987 31.3136 15.2479 31.583 15.2261 31.5229C15.165 31.3548 15.0651 31.2016 14.9764 31.0471C14.9446 30.9918 14.7997 30.7112 14.8428 30.9538C14.8857 31.1958 14.9438 31.4336 14.9791 31.6772C14.985 31.7177 15.0704 32.1036 14.9398 31.8964C14.7278 31.5599 14.6088 31.1691 14.468 30.8003C14.4204 30.6758 14.3763 30.5547 14.3106 30.4388C14.2479 30.3282 14.2436 30.389 14.2514 30.4696C14.3021 30.9979 14.723 32.5006 14.4422 32.0503C14.2967 31.817 14.2231 31.5095 14.1413 31.2493C14.0956 31.1039 14.0513 30.9052 14.1173 31.1943C14.1589 31.3767 14.3367 31.8111 14.2473 31.9911C14.2253 32.0353 14.1788 31.9178 14.1571 31.8734C14.0574 31.6697 13.9711 31.4584 13.877 31.252C13.8338 31.1571 13.7264 30.8445 13.7923 31.1331C13.8658 31.4552 13.9393 31.7772 14.0128 32.0993C14.1448 32.6777 13.8146 31.9445 13.7436 31.7778C13.6546 31.5688 13.737 32.0266 13.7371 32.0269C13.7872 32.3283 13.8314 32.6286 13.8519 32.9337C13.8671 33.1608 13.6862 32.6989 13.6858 32.6981C13.5658 32.4058 13.5005 32.1037 13.4258 31.7984C13.3773 31.6006 13.4124 31.9512 13.4155 31.9678C13.4564 32.187 13.5747 32.4715 13.5271 32.6968C13.4983 32.8335 13.3595 32.4684 13.3125 32.3369C13.273 32.2263 13.1809 31.6433 13.047 31.6027C13.0075 31.5907 13.0409 31.6857 13.0465 31.7266C13.0778 31.9556 13.1189 32.1846 13.1625 32.4114C13.2177 32.6985 13.4472 33.5369 13.3191 33.2742C13.1483 32.924 13.0664 32.5243 12.9375 32.1575C12.9307 32.1381 12.7202 31.5883 12.7786 31.9029C12.8709 32.3997 12.9865 32.89 13.0633 33.3902C13.0735 33.4563 13.2479 34.1348 13.0013 33.8248C12.7874 33.5559 12.6549 33.227 12.4912 32.9275C12.4847 32.9156 12.1334 32.2422 12.1299 32.4801C12.1245 32.8542 12.2142 33.2486 12.2877 33.6132C12.2896 33.6225 12.441 34.1626 12.3038 34.0243C12.1376 33.8567 12.0595 33.6164 11.9774 33.4018C11.9391 33.3015 11.7789 32.8681 11.8395 33.2519C11.9014 33.6434 11.9838 34.0317 12.0436 34.4235C12.0783 34.6509 12.0702 34.7002 11.9816 34.4549C11.8961 34.2181 11.8236 33.9722 11.7184 33.7432C11.5849 33.4526 11.6347 34.0582 11.6378 34.0841C11.693 34.5412 11.8049 34.9852 11.8222 35.4474C11.8326 35.7232 11.8086 35.8245 11.6747 35.5329C11.4705 35.0881 11.2772 34.6374 11.1225 34.1729C11.0196 33.8641 10.9672 33.8607 10.9667 34.197C10.966 34.6715 11.0584 35.1402 11.0826 35.6133C11.0897 35.7524 11.1294 36.1225 10.956 35.8409C10.8016 35.5902 10.6672 35.3246 10.5623 35.0495C10.556 35.0332 10.3595 34.472 10.3091 34.6091C10.19 34.9335 10.3191 35.4489 10.3429 35.7792C10.3574 35.9804 10.3692 36.1373 10.3777 36.3357C10.3814 36.4189 10.4355 36.6351 10.3685 36.5855C10.2637 36.5078 9.95126 35.6032 9.88831 36.0586C9.87058 36.1869 9.89621 36.5554 9.83203 36.443C9.66551 36.1512 9.61209 35.7327 9.51066 35.4134C9.47727 35.3082 9.39144 34.9992 9.38071 35.109C9.34991 35.4244 9.37885 35.7478 9.37125 36.0643C9.37046 36.0973 9.38691 36.6006 9.28481 36.3922C9.19054 36.1997 9.07106 35.8925 8.89808 35.7576C8.84032 35.7126 8.6514 37.2139 8.53649 37.1764C8.31461 37.1038 8.25106 36.5915 8.20339 37.0796" stroke="white" stroke-opacity="0.2" stroke-width="0.1" stroke-linecap="round"/>
<path d="M11.9898 28.2131C11.9955 28.2382 11.7725 27.9407 11.7416 27.8989C11.5918 27.6958 11.629 27.8424 11.6561 27.9976C11.7036 28.2691 11.7799 28.5401 11.7891 28.817C11.792 28.9018 11.7866 29.1565 11.6511 28.9854C11.3813 28.6444 11.2184 28.2012 11.0375 27.8111C10.9555 27.6343 10.8137 27.1252 10.6213 27.0131C10.5805 26.9894 10.5794 27.1013 10.5802 27.1485C10.5823 27.275 10.6099 27.477 10.6246 27.5957C10.638 27.7037 10.8085 28.5788 10.589 28.5994C10.4071 28.6165 10.2 27.9534 10.161 27.8599C10.0164 27.5134 9.88297 27.1626 9.74569 26.8132C9.64775 26.564 9.68578 26.7574 9.71051 26.8879C9.77548 27.2306 9.84617 27.573 9.87786 27.9209C9.87849 27.9279 9.93802 28.4245 9.78594 28.2282C9.59461 27.9812 9.45488 27.6772 9.29654 27.4091C9.16182 27.1809 9.02246 26.8521 8.79081 26.6999C8.55865 26.5473 8.50751 26.8682 8.44286 27.0134" stroke="white" stroke-opacity="0.2" stroke-width="0.1" stroke-linecap="round"/>
<path d="M6.43117 26.4352C6.40904 26.5515 6.29834 26.2382 6.24666 26.1316C6.15834 25.9496 6.08481 25.7239 5.97073 25.5537C5.83677 25.3538 6.03402 26.0309 6.07609 26.2678C6.08216 26.3019 6.18782 26.8121 6.0968 26.6267C5.98041 26.3897 5.91427 26.0851 5.73653 25.8844C5.62731 25.761 5.61869 26.1798 5.61205 26.2225C5.5627 26.5391 5.35687 26.1884 5.27799 26.0682C5.17951 25.9182 5.08987 25.7625 4.99834 25.6082C4.97486 25.5686 4.89232 25.3819 4.82658 25.3683C4.76093 25.3547 4.91819 26.0537 4.92822 26.0977" stroke="white" stroke-opacity="0.2" stroke-width="0.1" stroke-linecap="round"/>
<ellipse cx="43.5333" cy="31.0025" rx="4.02487" ry="4.02849" transform="rotate(160.856 43.5333 31.0025)" fill="#147333"/>
<ellipse cx="49.2557" cy="32.3401" rx="2.01244" ry="2.01425" transform="rotate(160.856 49.2557 32.3401)" fill="#147333"/>
<path d="M48.4712 26.401L38.473 29.7606" stroke="#147333" stroke-width="5" stroke-linecap="round"/>
<path d="M45.5361 37.0137L37.9855 29.6491" stroke="#147333" stroke-width="5" stroke-linecap="round"/>
<path d="M39.7064 29.5257C39.7491 29.3828 39.1611 29.6688 39.1348 29.6832C39.0648 29.7215 38.7516 30.034 38.787 29.958C39.0929 29.3005 39.3585 28.6357 39.6361 27.9661C39.7284 27.7434 39.4759 28.4207 39.3995 28.6493C39.3207 28.8853 39.2473 29.1203 39.1744 29.3582C39.1447 29.4551 38.9138 29.9733 38.983 30.0834C39.0634 30.2113 39.1838 29.8555 39.263 29.7269C39.546 29.2674 39.8042 28.7906 40.0422 28.3064C40.113 28.1625 40.4326 27.3095 40.2643 27.977C40.168 28.3585 40.0407 28.7347 39.963 29.1206C39.8549 29.657 40.3741 28.5371 40.3987 28.4857C40.402 28.4788 40.75 27.7796 40.7382 27.9066C40.7005 28.313 40.5631 28.7243 40.4724 29.1217C40.3737 29.5542 41.111 27.5059 41.1028 27.9495C41.0997 28.1167 40.8853 28.8451 41.0091 28.9533C41.0524 28.9912 41.4484 28.1402 41.4785 28.0698C41.5057 28.0061 41.5732 27.7148 41.6446 27.67C41.6481 27.6678 41.587 28.1076 41.582 28.1337C41.4655 28.7437 41.7549 28.2899 41.9052 28.0174C42.1973 27.4877 42.0739 28.0101 42.0046 28.3137C41.9941 28.3596 41.8573 28.8973 41.9234 28.7703C42.045 28.5368 42.1299 28.2876 42.2457 28.0519C42.4236 27.6901 42.2798 28.4399 42.2818 28.5123C42.2833 28.5668 42.6151 27.8199 42.6908 27.8051C42.8005 27.7835 42.5735 28.6651 42.619 28.7131C42.6834 28.7811 42.996 28.0928 43.003 28.0779C43.0848 27.9019 43.1596 27.7376 43.2416 27.5621C43.2873 27.4643 43.3725 27.1802 43.4061 27.2829C43.4935 27.55 43.3312 28.0584 43.3015 28.3217C43.2932 28.3958 43.2152 29.321 43.2802 29.2354C43.6053 28.8075 43.9066 28.2781 44.0946 27.7741C44.1764 27.5548 43.9157 28.2303 43.9521 28.4615C43.9771 28.6205 44.1707 28.2182 44.2369 28.0715C44.4199 27.6662 44.5726 27.2478 44.7538 26.8417C44.9379 26.4289 44.6284 27.7482 44.4493 28.1632C44.4059 28.2637 44.4925 27.9478 44.5279 27.8442C44.635 27.5299 44.7231 27.0292 44.9375 26.7685C45.0754 26.6007 44.8518 27.1943 44.8035 27.406C44.7352 27.7053 44.6669 28.0045 44.5986 28.3038C44.5272 28.6167 44.7735 27.6855 44.8834 27.3839C44.9524 27.1947 45.0771 26.8755 45.1524 26.685C45.169 26.643 45.2797 26.2569 45.3594 26.2197C45.3931 26.204 45.3113 26.7571 45.3093 26.7669C45.2594 27.0134 45.0198 27.6938 45.1939 27.5124C45.3896 27.3085 45.4785 26.8186 45.5763 26.5687C45.6693 26.3312 45.8795 25.4248 46.1594 25.3137C46.3591 25.2344 46.1754 25.7456 46.1447 25.9583C46.0861 26.3643 45.9535 26.8243 45.9824 27.2373C45.9893 27.3353 46.4011 26.5697 46.4324 26.502C46.4423 26.4807 46.8089 25.6922 46.8437 25.7348C46.8973 25.8004 46.6926 26.7717 46.891 26.6758C47.0464 26.6006 47.6558 25.4897 47.7428 25.5426C47.8126 25.585 47.7629 26.0265 47.8996 25.8779C48.0057 25.7625 48.2793 25.3498 48.1971 25.7097" stroke="white" stroke-opacity="0.2" stroke-width="0.1" stroke-linecap="round"/>
<path d="M38.0157 28.9841C37.8218 30.1104 38.0564 29.2602 37.8532 30.1508C37.8003 30.3824 37.7875 30.371 37.8763 30.1503C37.9408 29.9901 38.1638 29.3093 38.3304 29.246C38.3309 29.2458 38.2769 29.9763 38.2714 30.0216C38.2631 30.0906 38.1387 30.9059 38.3151 30.524C38.4676 30.1942 38.6164 29.858 38.7515 29.5206C38.8555 29.2609 38.8392 29.3231 38.8054 29.5618C38.7774 29.7601 38.6814 29.9814 38.7011 30.183C38.7053 30.226 38.8409 29.8858 38.856 29.8325C38.866 29.7969 38.9559 29.5622 38.8325 29.6198C38.5597 29.7471 38.327 30.0102 38.0771 30.1788C37.9118 30.2904 37.6646 30.4587 37.4636 30.3182C37.2191 30.1472 37.4847 29.4941 37.5335 29.2801C37.5337 29.2793 37.6776 28.6648 37.6066 28.9599C37.5407 29.2335 37.455 29.5017 37.3699 29.7698" stroke="white" stroke-opacity="0.2" stroke-width="0.1" stroke-linecap="round"/>
<path d="M38.6159 31.3501C38.668 31.2578 38.7691 31.119 38.7952 31.3219C38.8013 31.3697 38.7521 31.6391 38.7739 31.5791C38.835 31.4109 38.9349 31.2577 39.0236 31.1033C39.0554 31.0479 39.2003 30.7673 39.1572 31.01C39.1143 31.2519 39.0562 31.4897 39.0209 31.7334C39.015 31.7739 38.9296 32.1598 39.0602 31.9525C39.2722 31.616 39.3912 31.2252 39.532 30.8565C39.5796 30.7319 39.6237 30.6108 39.6894 30.495C39.7521 30.3844 39.7564 30.4451 39.7486 30.5258C39.6979 31.0541 39.277 32.5567 39.5578 32.1064C39.7033 31.8732 39.7769 31.5656 39.8587 31.3054C39.9044 31.16 39.9487 30.9614 39.8827 31.2504C39.8411 31.4328 39.6633 31.8673 39.7527 32.0472C39.7747 32.0915 39.8212 31.974 39.8429 31.9296C39.9426 31.7258 40.0289 31.5146 40.123 31.3081C40.1662 31.2132 40.2736 30.9007 40.2077 31.1892C40.1342 31.5113 40.0607 31.8334 39.9872 32.1555C39.8552 32.7338 40.1854 32.0007 40.2564 31.8339C40.3454 31.625 40.263 32.0828 40.2629 32.083C40.2128 32.3845 40.1686 32.6847 40.1481 32.9899C40.1329 33.2169 40.3138 32.7551 40.3142 32.7542C40.4342 32.462 40.4995 32.1598 40.5742 31.8546C40.6227 31.6568 40.5876 32.0073 40.5845 32.024C40.5436 32.2432 40.4253 32.5277 40.4729 32.753C40.5017 32.8897 40.6405 32.5246 40.6875 32.393C40.727 32.2824 40.8191 31.6995 40.953 31.6588C40.9925 31.6468 40.9591 31.7418 40.9535 31.7828C40.9222 32.0118 40.8811 32.2407 40.8375 32.4676C40.7823 32.7546 40.5528 33.5931 40.6809 33.3304C40.8517 32.9801 40.9336 32.5805 41.0625 32.2137C41.0693 32.1942 41.2798 31.6445 41.2214 31.9591C41.1291 32.4559 41.0135 32.9462 40.9367 33.4463C40.9265 33.5124 40.7521 34.191 40.9987 33.8809C41.2126 33.612 41.3451 33.2832 41.5088 32.9837C41.5153 32.9718 41.8666 32.2984 41.8701 32.5362C41.8755 32.9104 41.7858 33.3048 41.7123 33.6694C41.7104 33.6787 41.559 34.2187 41.6962 34.0804C41.8624 33.9129 41.9405 33.6725 42.0226 33.458C42.0609 33.3576 42.2211 32.9242 42.1605 33.308C42.0986 33.6996 42.0162 34.0879 41.9564 34.4796C41.9217 34.707 41.9298 34.7563 42.0184 34.511C42.1039 34.2743 42.1764 34.0284 42.2816 33.7993C42.4151 33.5088 42.3653 34.1143 42.3622 34.1403C42.307 34.5973 42.1951 35.0413 42.1778 35.5035C42.1674 35.7793 42.1914 35.8807 42.3253 35.589C42.5295 35.1442 42.7228 34.6936 42.8775 34.2291C42.9804 33.9203 43.0328 33.9168 43.0333 34.2531C43.034 34.7277 42.9416 35.1963 42.9174 35.6694C42.9103 35.8086 42.8706 36.1786 43.044 35.897C43.1984 35.6464 43.3328 35.3807 43.4377 35.1057C43.444 35.0893 43.6405 34.5282 43.6909 34.6652C43.81 34.9897 43.6809 35.505 43.6571 35.8354C43.6426 36.0366 43.6308 36.1935 43.6223 36.3918C43.6186 36.4751 43.5645 36.6912 43.6315 36.6416C43.7363 36.5639 44.0487 35.6593 44.1117 36.1148C44.1294 36.243 44.1038 36.6116 44.168 36.4991C44.3345 36.2073 44.3879 35.7889 44.4893 35.4695C44.5227 35.3644 44.6086 35.0553 44.6193 35.1651C44.6501 35.4805 44.6212 35.8039 44.6288 36.1205C44.6295 36.1535 44.6131 36.6568 44.7152 36.4483C44.8095 36.2559 44.9289 35.9486 45.1019 35.8138C45.1597 35.7687 45.3486 37.2701 45.4635 37.2325C45.6854 37.16 45.7489 36.6477 45.7966 37.1357" stroke="white" stroke-opacity="0.2" stroke-width="0.1" stroke-linecap="round"/>
<path d="M42.0102 28.2693C42.0045 28.2944 42.2275 27.9968 42.2584 27.955C42.4082 27.752 42.371 27.8986 42.3439 28.0537C42.2964 28.3252 42.2201 28.5963 42.2109 28.8732C42.208 28.958 42.2134 29.2127 42.3489 29.0415C42.6187 28.7006 42.7816 28.2574 42.9625 27.8673C43.0445 27.6905 43.1863 27.1813 43.3787 27.0692C43.4195 27.0455 43.4206 27.1575 43.4198 27.2047C43.4177 27.3312 43.3901 27.5331 43.3754 27.6518C43.362 27.7598 43.1915 28.635 43.411 28.6556C43.5929 28.6726 43.8 28.0096 43.839 27.9161C43.9836 27.5696 44.117 27.2188 44.2543 26.8694C44.3523 26.6201 44.3142 26.8136 44.2895 26.944C44.2245 27.2867 44.1538 27.6292 44.1221 27.9771C44.1215 27.984 44.062 28.4806 44.2141 28.2843C44.4054 28.0373 44.5451 27.7333 44.7035 27.4652C44.8382 27.2371 44.9775 26.9083 45.2092 26.756C45.4414 26.6035 45.4925 26.9244 45.5571 27.0695" stroke="white" stroke-opacity="0.2" stroke-width="0.1" stroke-linecap="round"/>
<path d="M47.5688 26.4914C47.591 26.6077 47.7017 26.2943 47.7533 26.1878C47.8417 26.0057 47.9152 25.7801 48.0293 25.6098C48.1632 25.4099 47.966 26.087 47.9239 26.3239C47.9178 26.3581 47.8122 26.8682 47.9032 26.6829C48.0196 26.4459 48.0857 26.1412 48.2635 25.9405C48.3727 25.8172 48.3813 26.236 48.388 26.2786C48.4373 26.5952 48.6431 26.2446 48.722 26.1244C48.8205 25.9744 48.9101 25.8186 49.0017 25.6643C49.0251 25.6247 49.1077 25.4381 49.1734 25.4244C49.2391 25.4108 49.0818 26.1099 49.0718 26.1538" stroke="white" stroke-opacity="0.2" stroke-width="0.1" stroke-linecap="round"/>
<ellipse cx="4.02487" cy="4.02849" rx="4.02487" ry="4.02849" transform="matrix(0.845411 -0.534116 -0.534116 -0.845411 17.9253 48.5737)" fill="#F049A0"/>
<ellipse cx="2.01244" cy="2.01425" rx="2.01244" ry="2.01425" transform="matrix(0.845411 -0.534116 -0.534116 -0.845411 16.0283 51.104)" fill="#F049A0"/>
<path d="M12.4991 44.0105L21.3596 38.2884" stroke="#F049A0" stroke-width="5" stroke-linecap="round"/>
<path d="M22.6265 48.3327L21.5765 37.8376" stroke="#F049A0" stroke-width="5" stroke-linecap="round"/>
<path d="M20.407 39.1056C20.2687 39.05 20.8588 38.7685 20.8866 38.757C20.9602 38.7262 21.3998 38.6761 21.3183 38.6564C20.6135 38.4856 19.9281 38.2788 19.2315 38.0783C18.9999 38.0116 19.6868 38.2365 19.9132 38.3193C20.1469 38.4048 20.3763 38.494 20.6078 38.5853C20.7021 38.6225 21.2512 38.7651 21.2941 38.8878C21.344 39.0304 20.9908 38.9027 20.8407 38.8845C20.3051 38.8192 19.7713 38.7238 19.2444 38.608C19.0878 38.5736 18.2216 38.2917 18.8483 38.5762C19.2066 38.7388 19.5802 38.8738 19.9303 39.0537C20.4171 39.3037 19.2178 39.0112 19.1623 38.9985C19.1548 38.9968 18.3912 38.8329 18.4978 38.9029C18.8391 39.1267 19.2463 39.2758 19.6135 39.4527C20.0132 39.6452 17.9521 38.9445 18.304 39.2146C18.4367 39.3165 19.1399 39.603 19.1473 39.7672C19.1499 39.8247 18.2377 39.6038 18.1638 39.5834C18.0971 39.565 17.8273 39.4361 17.7477 39.464C17.7438 39.4653 18.1258 39.6918 18.1493 39.7042C18.6988 39.9934 18.1636 39.9367 17.8569 39.8843C17.2606 39.7825 17.746 40.0116 18.0265 40.1467C18.069 40.1672 18.5747 40.3954 18.4341 40.368C18.1758 40.3175 17.928 40.2284 17.6715 40.1721C17.2777 40.0856 17.9536 40.4406 18.009 40.4873C18.0507 40.5225 17.2599 40.3162 17.201 40.3662C17.1158 40.4385 17.9465 40.8107 17.9557 40.8761C17.9687 40.9689 17.2357 40.7842 17.2197 40.7803C17.0311 40.7345 16.8559 40.6906 16.6677 40.6453C16.5626 40.62 16.2874 40.5096 16.3468 40.5998C16.5011 40.8346 16.9998 41.0248 17.2241 41.1657C17.2873 41.2054 18.0593 41.7213 17.9519 41.7188C17.4146 41.7062 16.8128 41.6117 16.3015 41.4444C16.0791 41.3716 16.7698 41.589 16.9278 41.7616C17.0365 41.8803 16.6013 41.7808 16.4453 41.7411C16.0144 41.6314 15.5921 41.4899 15.1616 41.3784C14.724 41.265 15.9484 41.8455 16.3846 41.9642C16.4903 41.993 16.1893 41.8638 16.0862 41.8268C15.7737 41.7146 15.3273 41.4713 14.9898 41.4763C14.7726 41.4796 15.3761 41.6749 15.5717 41.7691C15.8483 41.9023 16.1249 42.0355 16.4014 42.1687C16.6906 42.308 15.809 41.9199 15.5047 41.8178C15.3137 41.7538 14.9865 41.6522 14.7906 41.5923C14.7473 41.5791 14.3764 41.4249 14.2977 41.464C14.2644 41.4805 14.7478 41.7615 14.7567 41.7661C14.9805 41.8807 15.6619 42.1177 15.4115 42.1407C15.1301 42.1665 14.6916 41.9306 14.4353 41.8512C14.1916 41.7758 13.3519 41.375 13.0906 41.5246C12.904 41.6313 13.4182 41.8064 13.6037 41.915C13.9576 42.1223 14.3999 42.3055 14.7048 42.5856C14.7772 42.6521 13.9218 42.4967 13.8494 42.479C13.8265 42.4734 12.9816 42.2684 12.9931 42.3222C13.011 42.405 13.898 42.8505 13.6993 42.9458C13.5437 43.0205 12.2952 42.8043 12.2823 42.9053C12.2719 42.9863 12.648 43.2227 12.4466 43.2369C12.2903 43.2479 11.797 43.2045 12.1296 43.3647" stroke="white" stroke-opacity="0.2" stroke-width="0.1" stroke-linecap="round"/>
<path d="M21.038 37.4466C22.0394 37.9972 21.2284 37.6505 22.0514 38.0469C22.2655 38.15 22.2646 38.1328 22.0366 38.0647C21.8712 38.0152 21.1999 37.7652 21.0465 37.8559C21.046 37.8562 21.6508 38.2694 21.6897 38.2934C21.7489 38.3299 22.4638 38.741 22.0552 38.6408C21.7023 38.5543 21.3467 38.461 20.9987 38.3564C20.7307 38.2757 20.7896 38.3018 20.9972 38.4242C21.1697 38.5259 21.4027 38.5889 21.548 38.73C21.579 38.7601 21.2285 38.6539 21.1773 38.6325C21.1433 38.6182 20.9037 38.5421 21.0257 38.4815C21.2953 38.3476 21.6461 38.3297 21.9337 38.2395C22.124 38.1798 22.4098 38.0915 22.4252 37.8467C22.444 37.5489 21.7678 37.3494 21.57 37.2541C21.5693 37.2538 20.9991 36.9832 21.2741 37.1116C21.5291 37.2307 21.7922 37.331 22.0549 37.4316" stroke="white" stroke-opacity="0.2" stroke-width="0.1" stroke-linecap="round"/>
<path d="M22.5131 39.3912C22.4086 39.3743 22.237 39.3669 22.3793 39.5137C22.4129 39.5484 22.6542 39.6779 22.5937 39.6575C22.4241 39.6004 22.2421 39.583 22.066 39.556C22.0029 39.5464 21.6932 39.4847 21.9097 39.6023C22.1257 39.7196 22.3478 39.8225 22.5603 39.9468C22.5956 39.9675 22.9506 40.1413 22.7072 40.1141C22.3119 40.0701 21.9321 39.9195 21.556 39.7997C21.429 39.7592 21.3068 39.7182 21.1753 39.6973C21.0497 39.6774 21.0945 39.7186 21.1624 39.7628C21.6071 40.0526 23.0444 40.6604 22.5172 40.5992C22.2442 40.5674 21.9578 40.4332 21.7034 40.335C21.5612 40.28 21.3782 40.1908 21.6454 40.3195C21.8139 40.4007 22.2645 40.5325 22.3494 40.7147C22.3703 40.7594 22.2494 40.7225 22.2012 40.7118C21.9797 40.6627 21.7607 40.5985 21.5407 40.5433C21.4396 40.5179 21.1282 40.407 21.3949 40.5354C21.6925 40.6788 21.9902 40.8221 22.2878 40.9655C22.8223 41.2229 22.0432 41.0239 21.8686 40.9754C21.6497 40.9148 22.059 41.1357 22.0593 41.1359C22.3262 41.2846 22.5885 41.4373 22.8399 41.6115C23.0269 41.7412 22.5529 41.5947 22.5521 41.5944C22.2488 41.506 21.9718 41.3687 21.6866 41.2368C21.5017 41.1514 21.7976 41.3425 21.8126 41.3505C22.0095 41.4552 22.3056 41.54 22.4522 41.7177C22.541 41.8255 22.1691 41.7064 22.0369 41.6611C21.9258 41.623 21.4126 41.3315 21.2974 41.4109C21.2633 41.4343 21.3585 41.4674 21.394 41.4885C21.5925 41.6069 21.7971 41.7175 22.0017 41.8248C22.2605 41.9607 23.0591 42.304 22.7738 42.2404C22.3936 42.1555 22.03 41.9704 21.6629 41.8424C21.6434 41.8356 21.0824 41.6574 21.3648 41.8079C21.8107 42.0456 22.2661 42.2608 22.705 42.5126C22.7631 42.5459 23.4023 42.8326 23.0061 42.8321C22.6625 42.8317 22.3228 42.7303 21.9866 42.6714C21.9733 42.6691 21.2278 42.5239 21.4115 42.6749C21.7007 42.9125 22.0649 43.0882 22.3959 43.2581C22.4043 43.2624 22.9209 43.4808 22.7272 43.5018C22.4927 43.5272 22.256 43.4385 22.0371 43.3689C21.9347 43.3363 21.496 43.1913 21.8339 43.3832C22.1786 43.5789 22.5336 43.7566 22.8771 43.9541C23.0765 44.0688 23.11 44.1058 22.863 44.0222C22.6246 43.9414 22.3871 43.8447 22.1425 43.7842C21.8321 43.7074 22.3366 44.0461 22.3588 44.0598C22.7505 44.3016 23.1675 44.4909 23.5396 44.7656C23.7617 44.9295 23.826 45.0114 23.5145 44.9342C23.0394 44.8165 22.5666 44.6867 22.1069 44.5181C21.8013 44.406 21.7659 44.4448 22.0286 44.6549C22.3992 44.9513 22.8232 45.1713 23.2081 45.4473C23.3214 45.5285 23.6354 45.7282 23.3071 45.6882C23.0149 45.6526 22.7234 45.5921 22.443 45.5026C22.4263 45.4973 21.865 45.3011 21.9408 45.4259C22.1201 45.7214 22.6035 45.9417 22.8767 46.1291C23.043 46.2432 23.173 46.3318 23.3335 46.4488C23.4008 46.4979 23.6035 46.5903 23.523 46.6117C23.3969 46.6453 22.4949 46.3255 22.8117 46.6587C22.9009 46.7525 23.205 46.9623 23.0771 46.9423C22.7451 46.8906 22.3847 46.6715 22.0717 46.5516C21.9687 46.5122 21.6736 46.3866 21.7527 46.4634C21.9801 46.6842 22.251 46.8632 22.4938 47.0665C22.5191 47.0877 22.9228 47.3887 22.6962 47.3385C22.487 47.2922 22.1722 47.194 21.959 47.2452C21.8877 47.2623 22.9437 48.3461 22.8427 48.4125C22.6476 48.5407 22.2075 48.271 22.5594 48.6126" stroke="white" stroke-opacity="0.2" stroke-width="0.1" stroke-linecap="round"/>
<path d="M17.9883 40.1235C18.0115 40.1347 17.6398 40.1236 17.5878 40.1216C17.3357 40.1122 17.4735 40.1745 17.6117 40.25C17.8536 40.3822 18.113 40.4916 18.3353 40.6569C18.4034 40.7076 18.5991 40.8706 18.3809 40.8698C17.9461 40.8682 17.498 40.7193 17.0802 40.6175C16.8909 40.5713 16.4044 40.3647 16.1968 40.4453C16.1528 40.4623 16.2397 40.5331 16.277 40.5618C16.3773 40.6391 16.5524 40.7434 16.6543 40.8059C16.7471 40.8628 17.5377 41.2751 17.4169 41.4595C17.3168 41.6124 16.6693 41.3609 16.5719 41.3331C16.2108 41.2301 15.8533 41.1157 15.4946 41.0052C15.2387 40.9264 15.4136 41.0173 15.531 41.0793C15.8395 41.2421 16.1513 41.4004 16.443 41.5925C16.4489 41.5964 16.8742 41.8595 16.6259 41.856C16.3135 41.8515 15.9888 41.7713 15.6804 41.7279C15.418 41.691 15.0741 41.5949 14.8106 41.6811C14.5466 41.7675 14.7656 42.0076 14.8388 42.1486" stroke="white" stroke-opacity="0.2" stroke-width="0.1" stroke-linecap="round"/>
<path d="M13.1326 43.361C13.2097 43.4508 12.8957 43.342 12.7802 43.316C12.5828 43.2715 12.3605 43.1883 12.1563 43.1713C11.9165 43.1515 12.5688 43.4194 12.7803 43.5342C12.8108 43.5508 13.2755 43.7862 13.0738 43.7418C12.816 43.6851 12.5365 43.5468 12.2688 43.5606C12.1043 43.5691 12.4263 43.837 12.4555 43.8688C12.6723 44.1048 12.2698 44.047 12.1267 44.0338C11.948 44.0172 11.7703 43.9902 11.5926 43.9656C11.547 43.9592 11.3496 43.9074 11.298 43.9503C11.2464 43.9931 11.891 44.306 11.9316 44.3256" stroke="white" stroke-opacity="0.2" stroke-width="0.1" stroke-linecap="round"/>
<ellipse cx="34.2295" cy="43.0656" rx="4.02487" ry="4.02849" transform="rotate(-147.716 34.2295 43.0656)" fill="#D2D22D"/>
<ellipse cx="36.7519" cy="48.3736" rx="2.01244" ry="2.01425" transform="rotate(-147.716 36.7519 48.3736)" fill="#D2D22D"/>
<path d="M40.9067 44.0578L32.0462 38.3357" stroke="#D2D22D" stroke-width="5" stroke-linecap="round"/>
<path d="M30.7792 48.3801L31.8293 37.885" stroke="#D2D22D" stroke-width="5" stroke-linecap="round"/>
<path d="M32.9987 39.153C33.1371 39.0974 32.5469 38.8159 32.5192 38.8043C32.4456 38.7735 32.006 38.7235 32.0875 38.7037C32.7922 38.533 33.4777 38.3261 34.1743 38.1256C34.4059 38.059 33.7189 38.2839 33.4926 38.3667C33.2589 38.4522 33.0295 38.5413 32.798 38.6326C32.7037 38.6699 32.1546 38.8125 32.1117 38.9351C32.0618 39.0778 32.415 38.9501 32.565 38.9318C33.1007 38.8666 33.6345 38.7711 34.1614 38.6554C34.318 38.621 35.1842 38.3391 34.5574 38.6236C34.1991 38.7862 33.8256 38.9212 33.4754 39.101C32.9887 39.351 34.188 39.0586 34.2435 39.0459C34.251 39.0441 35.0146 38.8803 34.9079 38.9502C34.5667 39.1741 34.1595 39.3232 33.7922 39.5C33.3925 39.6925 35.4537 38.9919 35.1017 39.262C34.9691 39.3638 34.2659 39.6504 34.2585 39.8146C34.2559 39.8721 35.1681 39.6511 35.2419 39.6308C35.3086 39.6123 35.5785 39.4835 35.6581 39.5113C35.662 39.5127 35.28 39.7391 35.2565 39.7515C34.707 40.0408 35.2422 39.984 35.5489 39.9317C36.1452 39.8298 35.6598 40.059 35.3792 40.1941C35.3368 40.2146 34.8311 40.4428 34.9716 40.4153C35.23 40.3648 35.4778 40.2758 35.7342 40.2194C36.128 40.1329 35.4521 40.488 35.3968 40.5347C35.3551 40.5698 36.1459 40.3636 36.2048 40.4135C36.29 40.4858 35.4592 40.8581 35.4501 40.9235C35.4371 41.0163 36.1701 40.8315 36.1861 40.8276C36.3747 40.7819 36.5498 40.738 36.7381 40.6927C36.8431 40.6674 37.1183 40.5569 37.059 40.6472C36.9046 40.882 36.406 41.0721 36.1816 41.2131C36.1184 41.2528 35.3465 41.7686 35.4539 41.7661C35.9912 41.7536 36.593 41.659 37.1042 41.4917C37.3266 41.4189 36.636 41.6363 36.4779 41.8089C36.3692 41.9276 36.8044 41.8282 36.9604 41.7884C37.3913 41.6788 37.8137 41.5373 38.2441 41.4257C38.6817 41.3123 37.4573 41.8929 37.0212 42.0116C36.9155 42.0404 37.2165 41.9111 37.3196 41.8741C37.6321 41.762 38.0785 41.5187 38.416 41.5237C38.6331 41.5269 38.0297 41.7222 37.834 41.8165C37.5575 41.9497 37.2809 42.0829 37.0043 42.216C36.7151 42.3553 37.5968 41.9672 37.9011 41.8652C38.0921 41.8011 38.4193 41.6996 38.6152 41.6397C38.6584 41.6265 39.0293 41.4723 39.1081 41.5114C39.1414 41.5279 38.6579 41.8089 38.649 41.8135C38.4252 41.9281 37.7439 42.165 37.9943 42.188C38.2757 42.2139 38.7141 41.9779 38.9705 41.8986C39.2142 41.8232 40.0538 41.4224 40.3152 41.5719C40.5017 41.6787 39.9876 41.8538 39.8021 41.9624C39.4481 42.1697 39.0058 42.3529 38.7009 42.633C38.6286 42.6994 39.4839 42.5441 39.5564 42.5264C39.5793 42.5208 40.4242 42.3158 40.4126 42.3695C40.3948 42.4523 39.5077 42.8979 39.7064 42.9932C39.8621 43.0678 41.1106 42.8517 41.1235 42.9527C41.1339 43.0337 40.7577 43.2701 40.9591 43.2843C41.1155 43.2953 41.6087 43.2519 41.2762 43.412" stroke="white" stroke-opacity="0.2" stroke-width="0.1" stroke-linecap="round"/>
<path d="M32.3678 37.494C31.3663 38.0446 32.1773 37.6979 31.3543 38.0943C31.1403 38.1973 31.1412 38.1802 31.3691 38.1121C31.5346 38.0626 32.2059 37.8125 32.3592 37.9032C32.3598 37.9035 31.7549 38.3167 31.7161 38.3407C31.6569 38.3773 30.9419 38.7883 31.3505 38.6882C31.7035 38.6017 32.0591 38.5084 32.4071 38.4037C32.675 38.3231 32.6161 38.3491 32.4086 38.4715C32.236 38.5733 32.0031 38.6362 31.8578 38.7773C31.8268 38.8074 32.1773 38.7013 32.2284 38.6798C32.2625 38.6655 32.502 38.5895 32.3801 38.5289C32.1104 38.395 31.7596 38.3771 31.472 38.2869C31.2818 38.2272 30.996 38.1389 30.9806 37.8941C30.9618 37.5963 31.6379 37.3968 31.8357 37.3015C31.8364 37.3012 32.4066 37.0306 32.1317 37.159C31.8767 37.2781 31.6135 37.3784 31.3509 37.4789" stroke="white" stroke-opacity="0.2" stroke-width="0.1" stroke-linecap="round"/>
<path d="M30.8926 39.4386C30.9972 39.4217 31.1688 39.4142 31.0264 39.5611C30.9929 39.5957 30.7515 39.7252 30.8121 39.7048C30.9817 39.6478 31.1637 39.6304 31.3397 39.6034C31.4029 39.5937 31.7126 39.5321 31.496 39.6497C31.2801 39.767 31.058 39.8698 30.8455 39.9942C30.8101 40.0148 30.4552 40.1886 30.6986 40.1615C31.0939 40.1175 31.4736 39.9669 31.8497 39.847C31.9768 39.8066 32.099 39.7656 32.2305 39.7447C32.356 39.7248 32.3112 39.7659 32.2433 39.8102C31.7987 40.0999 30.3614 40.7077 30.8885 40.6465C31.1616 40.6148 31.448 40.4806 31.7024 40.3823C31.8445 40.3274 32.0275 40.2382 31.7604 40.3669C31.5918 40.448 31.1413 40.5799 31.0564 40.762C31.0355 40.8068 31.1563 40.7699 31.2046 40.7592C31.4261 40.7101 31.645 40.6459 31.8651 40.5907C31.9662 40.5653 32.2775 40.4544 32.0109 40.5828C31.7132 40.7261 31.4156 40.8695 31.1179 41.0128C30.5835 41.2702 31.3625 41.0712 31.5372 41.0228C31.7561 40.9621 31.3467 41.1831 31.3465 41.1832C31.0796 41.332 30.8172 41.4846 30.5659 41.6589C30.3789 41.7885 30.8528 41.6421 30.8537 41.6418C31.157 41.5534 31.4339 41.416 31.7192 41.2842C31.9041 41.1987 31.6081 41.3899 31.5932 41.3978C31.3963 41.5026 31.1001 41.5874 30.9536 41.7651C30.8647 41.8729 31.2367 41.7537 31.3688 41.7084C31.4799 41.6704 31.9932 41.3789 32.1084 41.4582C32.1424 41.4816 32.0473 41.5147 32.0118 41.5359C31.8132 41.6542 31.6086 41.7649 31.4041 41.8722C31.1453 42.008 30.3467 42.3514 30.6319 42.2877C31.0122 42.2028 31.3757 42.0178 31.7429 41.8898C31.7623 41.883 32.3234 41.7048 32.041 41.8553C31.595 42.0929 31.1396 42.3082 30.7007 42.56C30.6427 42.5932 30.0035 42.88 30.3996 42.8795C30.7432 42.879 31.0829 42.7776 31.4191 42.7188C31.4325 42.7165 32.178 42.5713 31.9942 42.7223C31.7051 42.9598 31.3408 43.1356 31.0099 43.3054C31.0014 43.3098 30.4849 43.5281 30.6785 43.5492C30.9131 43.5746 31.1498 43.4858 31.3686 43.4162C31.471 43.3837 31.9097 43.2386 31.5718 43.4305C31.2272 43.6263 30.8722 43.804 30.5287 44.0015C30.3292 44.1162 30.2957 44.1532 30.5427 44.0695C30.7812 43.9888 31.0186 43.8921 31.2633 43.8316C31.5737 43.7548 31.0692 44.0934 31.047 44.1071C30.6552 44.349 30.2383 44.5383 29.8662 44.8129C29.6441 44.9768 29.5798 45.0588 29.8913 44.9816C30.3663 44.8639 30.8392 44.7341 31.2989 44.5654C31.6045 44.4533 31.6398 44.4922 31.3772 44.7022C31.0066 44.9987 30.5826 45.2186 30.1976 45.4947C30.0844 45.5759 29.7703 45.7756 30.0986 45.7356C30.3908 45.7 30.6824 45.6394 30.9628 45.55C30.9795 45.5447 31.5408 45.3485 31.465 45.4733C31.2856 45.7687 30.8022 45.9891 30.5291 46.1764C30.3627 46.2905 30.2327 46.3792 30.0723 46.4962C30.005 46.5452 29.8022 46.6377 29.8828 46.6591C30.0089 46.6926 30.9109 46.3729 30.5941 46.7061C30.5048 46.7999 30.2007 47.0096 30.3287 46.9897C30.6606 46.938 31.0211 46.7188 31.334 46.599C31.437 46.5595 31.7322 46.434 31.653 46.5108C31.4256 46.7315 31.1547 46.9106 30.912 47.1139C30.8867 47.1351 30.4829 47.436 30.7096 47.3859C30.9188 47.3396 31.2335 47.2414 31.4468 47.2926C31.518 47.3097 30.462 48.3934 30.563 48.4599C30.7581 48.5881 31.1983 48.3184 30.8464 48.66" stroke="white" stroke-opacity="0.2" stroke-width="0.1" stroke-linecap="round"/>
<path d="M35.4175 40.1709C35.3943 40.1821 35.766 40.1709 35.8179 40.169C36.0701 40.1596 35.9323 40.2218 35.794 40.2974C35.5522 40.4295 35.2927 40.5389 35.0705 40.7043C35.0024 40.755 34.8066 40.918 35.0249 40.9172C35.4597 40.9156 35.9078 40.7666 36.3256 40.6648C36.5149 40.6187 37.0014 40.412 37.209 40.4926C37.2529 40.5097 37.1661 40.5804 37.1287 40.6092C37.0285 40.6864 36.8534 40.7908 36.7514 40.8533C36.6586 40.9101 35.8681 41.3224 35.9889 41.5069C36.0889 41.6598 36.7365 41.4083 36.8339 41.3805C37.1949 41.2775 37.5524 41.1631 37.9112 41.0526C38.1671 40.9737 37.9922 41.0646 37.8747 41.1266C37.5663 41.2895 37.2545 41.4478 36.9627 41.6399C36.9569 41.6437 36.5315 41.9068 36.7798 41.9033C37.0922 41.8989 37.417 41.8186 37.7254 41.7752C37.9877 41.7383 38.3317 41.6423 38.5951 41.7285C38.8592 41.8148 38.6401 42.0549 38.567 42.1959" stroke="white" stroke-opacity="0.2" stroke-width="0.1" stroke-linecap="round"/>
<path d="M40.2732 43.4084C40.196 43.4982 40.5101 43.3894 40.6256 43.3633C40.823 43.3189 41.0453 43.2357 41.2495 43.2187C41.4893 43.1988 40.8369 43.4668 40.6255 43.5816C40.595 43.5981 40.1303 43.8336 40.3319 43.7892C40.5898 43.7324 40.8692 43.5942 41.1369 43.608C41.3015 43.6165 40.9794 43.8844 40.9502 43.9161C40.7335 44.1521 41.136 44.0944 41.2791 44.0812C41.4578 44.0646 41.6355 44.0376 41.8132 44.0129C41.8588 44.0066 42.0561 43.9547 42.1078 43.9977C42.1594 44.0405 41.5148 44.3534 41.4742 44.3729" stroke="white" stroke-opacity="0.2" stroke-width="0.1" stroke-linecap="round"/>
</svg>
