<svg width="142" height="120" viewBox="0 0 142 120" fill="none" xmlns="http://www.w3.org/2000/svg">
<g clip-path="url(#clip0_1492_4760)">
<path d="M61.7754 53.5635C66.0894 55.0769 70.1624 57.4271 73.7976 60.5266L85.1905 51.0659L85.1915 51.0651C87.8073 48.8985 91.331 48.9357 93.9056 51.1479L120.338 73.0983L61.7754 53.5635ZM61.7754 53.5635C67.6216 49.2285 71.4507 41.742 71.4507 33.302C71.4507 20.0961 62.0258 9.12282 50.1736 9.12282C38.3215 9.12282 28.8963 20.0958 28.8963 33.302C28.8963 41.7387 32.7223 49.2223 38.5644 53.5581C22.4057 59.2364 10.739 76.3979 10.739 96.5028C10.739 97.2475 10.9967 97.9838 11.4877 98.545C11.9824 99.1105 12.6837 99.4584 13.4476 99.4584H65.6764V110.143C65.6764 115.741 69.6859 120.524 74.8815 120.524H104.115C109.311 120.524 113.32 115.741 113.32 110.143V87.2174C116.374 88.6004 119.972 87.4848 121.937 84.387L121.937 84.3868C124.213 80.7974 123.541 75.752 120.339 73.0992L61.7754 53.5635ZM62.9735 87.8018C63.9101 87.8027 64.8266 87.5997 65.6764 87.2158M62.9735 87.8018L62.9744 86.8211V87.8018C62.9741 87.8018 62.9738 87.8018 62.9735 87.8018ZM62.9735 87.8018C60.6729 87.8015 58.453 86.5844 57.0598 84.3871L57.0598 84.387C54.7837 80.7966 55.4564 75.7509 58.6607 73.0966M65.6764 87.2158L70.0945 64.8767C69.837 64.6632 69.5772 64.4541 69.315 64.2493M65.6764 87.2158V93.547L16.2527 93.5472C17.5799 73.2975 32.388 57.4862 50.1652 57.4814C50.1653 57.4814 50.1654 57.4814 50.1655 57.4814H50.1822L65.6764 87.2158ZM58.6607 73.0966L58.6598 73.0974L59.2863 73.8519L58.6607 73.0966ZM58.6607 73.0966L69.315 64.2493M69.315 64.2493C63.6917 59.8579 57.0105 57.4835 50.1825 57.4814L70.0867 63.6085L69.315 64.2493ZM50.1739 15.0343C41.5484 15.0343 34.3137 23.103 34.3137 33.3022C34.3137 43.4993 41.5453 51.5665 50.1685 51.5702L50.1739 15.0343ZM50.1739 15.0343C58.7991 15.0343 66.0339 23.103 66.0339 33.3022M50.1739 15.0343L66.0339 33.3022M66.0339 33.3022C66.0339 43.4994 58.8024 51.5667 50.1797 51.5702M66.0339 33.3022L50.1797 51.5702M50.1797 51.5702C50.1796 51.5702 50.1795 51.5702 50.1793 51.5702M50.1797 51.5702H50.1793M50.1793 51.5702H50.1689H50.1793ZM61.5148 81.0191L61.5148 81.019C60.8512 79.9725 61.0868 78.5121 61.9415 77.804L61.9424 77.8033L88.4721 55.7723C89.0976 55.2543 89.94 55.2634 90.5567 55.7979L90.5645 55.8045L90.593 55.8288L90.601 55.8354L117.056 77.8047L117.057 77.8055C117.91 78.5118 118.146 79.9721 117.482 81.0191C116.863 81.9966 115.772 82.1408 115.007 81.5087C115.007 81.5084 115.006 81.5081 115.006 81.5079L91.1409 61.69C90.667 61.2961 90.09 61.0862 89.4984 61.0862C88.9064 61.0862 88.3297 61.2965 87.8563 61.6897L63.9916 81.5074C63.2251 82.1412 62.1342 81.996 61.5148 81.0191ZM93.0868 114.613H85.9096V92.6604C85.9098 92.4785 85.9742 92.3263 86.0564 92.2323L85.3183 91.5865L86.0564 92.2323C86.135 92.1425 86.2113 92.1222 86.2582 92.1221H92.7382C92.7851 92.1222 92.8613 92.1425 92.9398 92.2323C93.022 92.3262 93.0864 92.4784 93.0866 92.6602L93.0868 114.613ZM107.903 110.143C107.903 112.734 106.084 114.613 104.115 114.613H98.5041V92.6594C98.5041 89.2301 96.0381 86.2109 92.7399 86.2109H86.2574C82.959 86.2109 80.4929 89.2303 80.4929 92.6594V114.613H74.8817C72.9127 114.613 71.0937 112.734 71.0937 110.143V83.0413L89.4986 67.7576L107.903 83.0413L107.903 110.143Z" fill="#0056AD" stroke="#0056AD" stroke-width="1.9614"/>
</g>
<defs>
<clipPath id="clip0_1492_4760">
<rect width="141.36" height="118.56" fill="white" transform="translate(0.320312 0.983521)"/>
</clipPath>
</defs>
</svg>
