<svg width="69" height="76" viewBox="0 0 69 76" fill="none" xmlns="http://www.w3.org/2000/svg">
<path d="M7.83298 44.6666C7.2022 44.6688 6.58375 44.4919 6.04949 44.1566C5.51523 43.8212 5.08709 43.3412 4.81481 42.7722C4.54254 42.2032 4.43729 41.5686 4.51131 40.9422C4.58534 40.3157 4.83558 39.7232 5.23298 39.2333L38.233 5.23331C38.4805 4.94758 38.8178 4.75449 39.1896 4.68575C39.5613 4.617 39.9454 4.67668 40.2787 4.85499C40.6121 5.03329 40.8749 5.31963 41.0241 5.667C41.1733 6.01437 41.1999 6.40213 41.0996 6.76664L34.6996 26.8333C34.5109 27.3384 34.4476 27.8817 34.515 28.4167C34.5824 28.9516 34.7785 29.4622 35.0866 29.9047C35.3947 30.3472 35.8056 30.7084 36.2839 30.9572C36.7622 31.206 37.2938 31.3351 37.833 31.3333H61.1663C61.7971 31.3312 62.4155 31.508 62.9498 31.8434C63.4841 32.1787 63.9122 32.6588 64.1845 33.2278C64.4568 33.7968 64.562 34.4314 64.488 35.0578C64.414 35.6842 64.1637 36.2768 63.7663 36.7666L30.7663 70.7666C30.5188 71.0524 30.1815 71.2454 29.8097 71.3142C29.438 71.3829 29.0539 71.3233 28.7205 71.145C28.3872 70.9667 28.1244 70.6803 27.9752 70.3329C27.826 69.9856 27.7994 69.5978 27.8997 69.2333L34.2996 49.1666C34.4884 48.6616 34.5517 48.1182 34.4843 47.5833C34.4169 47.0483 34.2208 46.5377 33.9127 46.0952C33.6046 45.6527 33.1937 45.2916 32.7154 45.0428C32.2371 44.794 31.7055 44.6649 31.1663 44.6666H7.83298Z" stroke="url(#paint0_linear_1940_5930)" stroke-width="8" stroke-linecap="round" stroke-linejoin="round"/>
<defs>
<linearGradient id="paint0_linear_1940_5930" x1="34.4996" y1="4.65796" x2="34.4996" y2="71.342" gradientUnits="userSpaceOnUse">
<stop stop-color="#0056AD"/>
<stop offset="1" stop-color="#FC007A"/>
</linearGradient>
</defs>
</svg>
